<mxfile host="65bd71144e">
    <diagram id="MVUvAnfiSdlO2bvuxvca" name="Page-1">
        <mxGraphModel dx="2002" dy="1126" grid="1" gridSize="10" guides="1" tooltips="1" connect="1" arrows="1" fold="1" page="1" pageScale="1" pageWidth="827" pageHeight="1169" math="0" shadow="0">
            <root>
                <mxCell id="0"/>
                <mxCell id="1" parent="0"/>
                <mxCell id="427" value="«Subsystem»&lt;br&gt;&lt;div&gt;&lt;b&gt;Core System&lt;/b&gt;&lt;/div&gt;" style="html=1;dropTarget=0;whiteSpace=wrap;verticalAlign=top;" vertex="1" parent="1">
                    <mxGeometry x="670" y="1551.15" width="540" height="490" as="geometry"/>
                </mxCell>
                <mxCell id="428" value="" style="shape=module;jettyWidth=8;jettyHeight=4;" vertex="1" parent="427">
                    <mxGeometry x="1" width="20" height="20" relative="1" as="geometry">
                        <mxPoint x="-27" y="7" as="offset"/>
                    </mxGeometry>
                </mxCell>
                <mxCell id="409" value="«Subsystem»&lt;br&gt;&lt;div&gt;&lt;b&gt;Actuator&lt;/b&gt;&lt;/div&gt;" style="html=1;dropTarget=0;whiteSpace=wrap;verticalAlign=top;" vertex="1" parent="1">
                    <mxGeometry x="1719.3" y="1268.79" width="354.7" height="580" as="geometry"/>
                </mxCell>
                <mxCell id="410" value="" style="shape=module;jettyWidth=8;jettyHeight=4;" vertex="1" parent="409">
                    <mxGeometry x="1" width="20" height="20" relative="1" as="geometry">
                        <mxPoint x="-27" y="7" as="offset"/>
                    </mxGeometry>
                </mxCell>
                <mxCell id="335" value="«Subsystem»&lt;br&gt;&lt;div&gt;&lt;b&gt;Communicator&lt;/b&gt;&lt;/div&gt;" style="html=1;dropTarget=0;whiteSpace=wrap;verticalAlign=top;" vertex="1" parent="1">
                    <mxGeometry x="155" y="801" width="781" height="620" as="geometry"/>
                </mxCell>
                <mxCell id="336" value="" style="shape=module;jettyWidth=8;jettyHeight=4;" vertex="1" parent="335">
                    <mxGeometry x="1" width="20" height="20" relative="1" as="geometry">
                        <mxPoint x="-27" y="7" as="offset"/>
                    </mxGeometry>
                </mxCell>
                <mxCell id="266" value="«Subsystem»&lt;br&gt;&lt;div&gt;&lt;b&gt;Structural Analysis&lt;/b&gt;&lt;/div&gt;" style="html=1;dropTarget=0;whiteSpace=wrap;verticalAlign=top;" vertex="1" parent="1">
                    <mxGeometry x="1726.34" y="675.5" width="354.7" height="480" as="geometry"/>
                </mxCell>
                <mxCell id="267" value="" style="shape=module;jettyWidth=8;jettyHeight=4;" vertex="1" parent="266">
                    <mxGeometry x="1" width="20" height="20" relative="1" as="geometry">
                        <mxPoint x="-27" y="7" as="offset"/>
                    </mxGeometry>
                </mxCell>
                <mxCell id="167" value="«Subsystem»&lt;br&gt;&lt;div&gt;&lt;b&gt;Search and Rescue Task&lt;/b&gt;&lt;/div&gt;" style="html=1;dropTarget=0;whiteSpace=wrap;verticalAlign=top;" parent="1" vertex="1">
                    <mxGeometry x="1736.34" y="105.5" width="314.7" height="450" as="geometry"/>
                </mxCell>
                <mxCell id="168" value="" style="shape=module;jettyWidth=8;jettyHeight=4;" parent="167" vertex="1">
                    <mxGeometry x="1" width="20" height="20" relative="1" as="geometry">
                        <mxPoint x="-27" y="7" as="offset"/>
                    </mxGeometry>
                </mxCell>
                <mxCell id="152" value="" style="group" parent="1" vertex="1" connectable="0">
                    <mxGeometry x="80" y="90" width="1160" height="490" as="geometry"/>
                </mxCell>
                <mxCell id="118" value="&lt;font style=&quot;font-size: 20px;&quot;&gt;«Subsystem»&lt;br&gt;&lt;b style=&quot;&quot;&gt;Perception&lt;/b&gt;&lt;/font&gt;" style="html=1;dropTarget=0;whiteSpace=wrap;verticalAlign=top;" parent="152" vertex="1">
                    <mxGeometry width="1160" height="481.9672131147541" as="geometry"/>
                </mxCell>
                <mxCell id="119" value="" style="shape=module;jettyWidth=8;jettyHeight=4;" parent="118" vertex="1">
                    <mxGeometry x="1" width="20" height="20" relative="1" as="geometry">
                        <mxPoint x="-27" y="7" as="offset"/>
                    </mxGeometry>
                </mxCell>
                <mxCell id="110" style="edgeStyle=none;html=1;dashed=1;dashPattern=8 8;endArrow=open;endFill=0;" parent="152" source="97" edge="1">
                    <mxGeometry relative="1" as="geometry">
                        <mxPoint x="327.6335877862595" y="216.88524590163937" as="targetPoint"/>
                    </mxGeometry>
                </mxCell>
                <mxCell id="126" value="Depth" style="edgeLabel;html=1;align=center;verticalAlign=middle;resizable=0;points=[];" parent="110" vertex="1" connectable="0">
                    <mxGeometry x="-0.1994" y="-1" relative="1" as="geometry">
                        <mxPoint as="offset"/>
                    </mxGeometry>
                </mxCell>
                <mxCell id="97" value="«Componet»&lt;br&gt;&lt;b&gt;Sonars&lt;/b&gt;" style="html=1;dropTarget=0;whiteSpace=wrap;" parent="152" vertex="1">
                    <mxGeometry x="247.9389312977099" y="56.22950819672131" width="159.38931297709922" height="72.29508196721311" as="geometry"/>
                </mxCell>
                <mxCell id="98" value="" style="shape=module;jettyWidth=8;jettyHeight=4;" parent="97" vertex="1">
                    <mxGeometry x="1" width="20" height="20" relative="1" as="geometry">
                        <mxPoint x="-27" y="7" as="offset"/>
                    </mxGeometry>
                </mxCell>
                <mxCell id="105" value="" style="edgeStyle=none;html=1;dashed=1;dashPattern=8 8;endArrow=open;endFill=0;exitX=0.5;exitY=1;exitDx=0;exitDy=0;" parent="152" source="99" edge="1">
                    <mxGeometry relative="1" as="geometry">
                        <mxPoint x="327.6335877862595" y="216.88524590163937" as="targetPoint"/>
                    </mxGeometry>
                </mxCell>
                <mxCell id="125" value="Depth/ PointCloud" style="edgeLabel;html=1;align=center;verticalAlign=middle;resizable=0;points=[];" parent="105" vertex="1" connectable="0">
                    <mxGeometry x="0.0916" y="-5" relative="1" as="geometry">
                        <mxPoint as="offset"/>
                    </mxGeometry>
                </mxCell>
                <mxCell id="99" value="«Componet»&lt;br&gt;&lt;b&gt;LiDARs&lt;/b&gt;" style="html=1;dropTarget=0;whiteSpace=wrap;" parent="152" vertex="1">
                    <mxGeometry x="26.564885496183205" y="56.22950819672131" width="159.38931297709922" height="72.29508196721311" as="geometry"/>
                </mxCell>
                <mxCell id="100" value="" style="shape=module;jettyWidth=8;jettyHeight=4;" parent="99" vertex="1">
                    <mxGeometry x="1" width="20" height="20" relative="1" as="geometry">
                        <mxPoint x="-27" y="7" as="offset"/>
                    </mxGeometry>
                </mxCell>
                <mxCell id="111" style="edgeStyle=none;html=1;dashed=1;dashPattern=8 8;endArrow=open;endFill=0;exitX=0.5;exitY=1;exitDx=0;exitDy=0;" parent="152" source="101" edge="1">
                    <mxGeometry relative="1" as="geometry">
                        <mxPoint x="327.6335877862595" y="216.88524590163937" as="targetPoint"/>
                    </mxGeometry>
                </mxCell>
                <mxCell id="127" value="PointClound&lt;div&gt;Depth&lt;/div&gt;&lt;div&gt;Infrared&lt;/div&gt;" style="edgeLabel;html=1;align=center;verticalAlign=middle;resizable=0;points=[];" parent="111" vertex="1" connectable="0">
                    <mxGeometry x="0.1543" y="-1" relative="1" as="geometry">
                        <mxPoint as="offset"/>
                    </mxGeometry>
                </mxCell>
                <mxCell id="101" value="«Componet»&lt;br&gt;&lt;b&gt;RGB-D Cameras&lt;/b&gt;" style="html=1;dropTarget=0;whiteSpace=wrap;" parent="152" vertex="1">
                    <mxGeometry x="469.31297709923666" y="56.22950819672131" width="159.38931297709922" height="72.29508196721311" as="geometry"/>
                </mxCell>
                <mxCell id="102" value="" style="shape=module;jettyWidth=8;jettyHeight=4;" parent="101" vertex="1">
                    <mxGeometry x="1" width="20" height="20" relative="1" as="geometry">
                        <mxPoint x="-27" y="7" as="offset"/>
                    </mxGeometry>
                </mxCell>
                <mxCell id="109" style="edgeStyle=none;html=1;endArrow=halfCircle;endFill=0;" parent="152" source="103" edge="1">
                    <mxGeometry relative="1" as="geometry">
                        <mxPoint x="327.6335877862595" y="216.88524590163937" as="targetPoint"/>
                        <Array as="points">
                            <mxPoint x="327.6335877862595" y="232.95081967213116"/>
                        </Array>
                    </mxGeometry>
                </mxCell>
                <mxCell id="103" value="«Componet»&lt;br&gt;&lt;b&gt;Merge Data&lt;/b&gt;" style="html=1;dropTarget=0;whiteSpace=wrap;" parent="152" vertex="1">
                    <mxGeometry x="247.9389312977099" y="297.21311475409834" width="159.38931297709922" height="72.29508196721311" as="geometry"/>
                </mxCell>
                <mxCell id="104" value="" style="shape=module;jettyWidth=8;jettyHeight=4;" parent="103" vertex="1">
                    <mxGeometry x="1" width="20" height="20" relative="1" as="geometry">
                        <mxPoint x="-27" y="7" as="offset"/>
                    </mxGeometry>
                </mxCell>
                <mxCell id="114" value="«Componet»&lt;br&gt;&lt;b&gt;GPS&lt;/b&gt;" style="html=1;dropTarget=0;whiteSpace=wrap;" parent="152" vertex="1">
                    <mxGeometry x="726.1068702290075" y="56.22950819672131" width="159.38931297709922" height="72.29508196721311" as="geometry"/>
                </mxCell>
                <mxCell id="115" value="" style="shape=module;jettyWidth=8;jettyHeight=4;" parent="114" vertex="1">
                    <mxGeometry x="1" width="20" height="20" relative="1" as="geometry">
                        <mxPoint x="-27" y="7" as="offset"/>
                    </mxGeometry>
                </mxCell>
                <mxCell id="116" value="«Componet»&lt;br&gt;&lt;b&gt;IMUs&lt;/b&gt;" style="html=1;dropTarget=0;whiteSpace=wrap;" parent="152" vertex="1">
                    <mxGeometry x="956.3358778625953" y="56.22950819672131" width="159.38931297709922" height="72.29508196721311" as="geometry"/>
                </mxCell>
                <mxCell id="117" value="" style="shape=module;jettyWidth=8;jettyHeight=4;" parent="116" vertex="1">
                    <mxGeometry x="1" width="20" height="20" relative="1" as="geometry">
                        <mxPoint x="-27" y="7" as="offset"/>
                    </mxGeometry>
                </mxCell>
                <mxCell id="120" value="" style="html=1;rounded=0;direction=south;" parent="152" vertex="1">
                    <mxGeometry x="314.35114503816794" y="465.9016393442623" width="26.564885496183205" height="24.098360655737707" as="geometry"/>
                </mxCell>
                <mxCell id="121" value="" style="endArrow=none;html=1;rounded=0;align=center;verticalAlign=top;endFill=0;labelBackgroundColor=none;endSize=2;" parent="152" source="120" target="122" edge="1">
                    <mxGeometry relative="1" as="geometry"/>
                </mxCell>
                <mxCell id="124" value="" style="edgeStyle=none;html=1;endArrow=oval;endFill=0;jumpSize=7;" parent="152" source="103" target="122" edge="1">
                    <mxGeometry relative="1" as="geometry"/>
                </mxCell>
                <mxCell id="129" value="&lt;span style=&quot;color: rgb(0, 0, 0);&quot;&gt;PointClound&lt;/span&gt;&lt;div&gt;Depth&lt;/div&gt;&lt;div&gt;Infrared&lt;/div&gt;" style="edgeLabel;html=1;align=center;verticalAlign=middle;resizable=0;points=[];" parent="124" vertex="1" connectable="0">
                    <mxGeometry x="-0.1023" y="-2" relative="1" as="geometry">
                        <mxPoint as="offset"/>
                    </mxGeometry>
                </mxCell>
                <mxCell id="122" value="" style="shape=requiredInterface;html=1;fontSize=11;align=center;fillColor=none;points=[];aspect=fixed;resizable=0;verticalAlign=bottom;labelPosition=center;verticalLabelPosition=top;flipH=1;direction=south;strokeWidth=1;" parent="152" vertex="1">
                    <mxGeometry x="323.206106870229" y="433.77049180327873" width="10" height="5" as="geometry"/>
                </mxCell>
                <mxCell id="130" value="" style="html=1;rounded=0;direction=east;rotation=-90;" parent="152" vertex="1">
                    <mxGeometry x="535.7251908396946" y="465.9016393442623" width="26.564885496183205" height="24.098360655737707" as="geometry"/>
                </mxCell>
                <mxCell id="131" value="" style="endArrow=none;html=1;rounded=0;align=center;verticalAlign=top;endFill=0;labelBackgroundColor=none;endSize=2;exitX=1;exitY=0.5;exitDx=0;exitDy=0;" parent="152" source="130" target="132" edge="1">
                    <mxGeometry relative="1" as="geometry"/>
                </mxCell>
                <mxCell id="134" style="edgeStyle=none;html=1;exitX=0.5;exitY=1;exitDx=0;exitDy=0;endArrow=oval;endFill=0;jumpSize=3;" parent="152" source="101" edge="1">
                    <mxGeometry relative="1" as="geometry">
                        <mxPoint x="549.0076335877862" y="437.78688524590166" as="targetPoint"/>
                    </mxGeometry>
                </mxCell>
                <mxCell id="140" value="&lt;span style=&quot;font-family: monospace; font-size: 0px; text-align: start; background-color: rgb(251, 251, 251);&quot;&gt;%3CmxGraphModel%3E%3Croot%3E%3CmxCell%20id%3D%220%22%2F%3E%3CmxCell%20id%3D%221%22%20parent%3D%220%22%2F%3E%3CmxCell%20id%3D%222%22%20value%3D%22PointClound%26lt%3Bdiv%26gt%3BDepth%26lt%3B%2Fdiv%26gt%3B%26lt%3Bdiv%26gt%3BInfrared%26lt%3B%2Fdiv%26gt%3B%22%20style%3D%22edgeLabel%3Bhtml%3D1%3Balign%3Dcenter%3BverticalAlign%3Dmiddle%3Bresizable%3D0%3Bpoints%3D%5B%5D%3B%22%20vertex%3D%221%22%20connectable%3D%220%22%20parent%3D%221%22%3E%3CmxGeometry%20x%3D%22555.5346345435423%22%20y%3D%22312.47224077814167%22%20as%3D%22geometry%22%2F%3E%3C%2FmxCell%3E%3C%2Froot%3E%3C%2FmxGraphModel%3E&lt;/span&gt;" style="edgeLabel;html=1;align=center;verticalAlign=middle;resizable=0;points=[];" parent="134" vertex="1" connectable="0">
                    <mxGeometry x="-0.5374" y="-4" relative="1" as="geometry">
                        <mxPoint as="offset"/>
                    </mxGeometry>
                </mxCell>
                <mxCell id="141" value="&lt;div&gt;&lt;span style=&quot;color: rgb(0, 0, 0);&quot;&gt;RGB&lt;/span&gt;&lt;/div&gt;&lt;span style=&quot;color: rgb(0, 0, 0);&quot;&gt;PointClound&lt;/span&gt;&lt;div&gt;Depth&lt;/div&gt;&lt;div&gt;Infrared&lt;/div&gt;" style="edgeLabel;html=1;align=center;verticalAlign=middle;resizable=0;points=[];" parent="134" vertex="1" connectable="0">
                    <mxGeometry x="-0.3251" y="3" relative="1" as="geometry">
                        <mxPoint as="offset"/>
                    </mxGeometry>
                </mxCell>
                <mxCell id="132" value="" style="shape=requiredInterface;html=1;fontSize=11;align=center;fillColor=none;points=[];aspect=fixed;resizable=0;verticalAlign=bottom;labelPosition=center;verticalLabelPosition=top;flipH=1;direction=south;perimeterSpacing=0;" parent="152" vertex="1">
                    <mxGeometry x="544.5801526717557" y="437.78688524590166" width="10" height="5" as="geometry"/>
                </mxCell>
                <mxCell id="135" value="" style="html=1;rounded=0;" parent="152" vertex="1">
                    <mxGeometry x="792.5190839694656" y="465.9016393442623" width="26.564885496183205" height="24.098360655737707" as="geometry"/>
                </mxCell>
                <mxCell id="136" value="" style="endArrow=none;html=1;rounded=0;align=center;verticalAlign=top;endFill=0;labelBackgroundColor=none;endSize=2;exitX=0.5;exitY=0;exitDx=0;exitDy=0;" parent="152" source="135" target="137" edge="1">
                    <mxGeometry relative="1" as="geometry"/>
                </mxCell>
                <mxCell id="139" style="edgeStyle=none;html=1;exitX=0.5;exitY=1;exitDx=0;exitDy=0;endArrow=oval;endFill=0;" parent="152" source="114" target="137" edge="1">
                    <mxGeometry relative="1" as="geometry"/>
                </mxCell>
                <mxCell id="142" value="Position" style="edgeLabel;html=1;align=center;verticalAlign=middle;resizable=0;points=[];" parent="139" vertex="1" connectable="0">
                    <mxGeometry x="-0.3026" y="1" relative="1" as="geometry">
                        <mxPoint as="offset"/>
                    </mxGeometry>
                </mxCell>
                <mxCell id="137" value="" style="shape=requiredInterface;html=1;fontSize=11;align=center;fillColor=none;points=[];aspect=fixed;resizable=0;verticalAlign=bottom;labelPosition=center;verticalLabelPosition=top;flipH=1;direction=south;" parent="152" vertex="1">
                    <mxGeometry x="801.3740458015267" y="441.8032786885246" width="10" height="5" as="geometry"/>
                </mxCell>
                <mxCell id="146" value="" style="html=1;rounded=0;" parent="152" vertex="1">
                    <mxGeometry x="1022.7480916030535" y="465.9016393442623" width="26.564885496183205" height="24.098360655737707" as="geometry"/>
                </mxCell>
                <mxCell id="147" value="" style="endArrow=none;html=1;rounded=0;align=center;verticalAlign=top;endFill=0;labelBackgroundColor=none;endSize=2;exitX=0.5;exitY=0;exitDx=0;exitDy=0;" parent="152" source="146" target="148" edge="1">
                    <mxGeometry relative="1" as="geometry"/>
                </mxCell>
                <mxCell id="150" style="edgeStyle=none;html=1;exitX=0.5;exitY=1;exitDx=0;exitDy=0;endArrow=oval;endFill=0;" parent="152" source="116" target="148" edge="1">
                    <mxGeometry relative="1" as="geometry"/>
                </mxCell>
                <mxCell id="151" value="Linear Acceleration&lt;div&gt;Angula Velocity&lt;/div&gt;" style="edgeLabel;html=1;align=center;verticalAlign=middle;resizable=0;points=[];" parent="150" vertex="1" connectable="0">
                    <mxGeometry x="-0.272" y="2" relative="1" as="geometry">
                        <mxPoint as="offset"/>
                    </mxGeometry>
                </mxCell>
                <mxCell id="148" value="" style="shape=requiredInterface;html=1;fontSize=11;align=center;fillColor=none;points=[];aspect=fixed;resizable=0;verticalAlign=bottom;labelPosition=center;verticalLabelPosition=top;flipH=1;direction=south;" parent="152" vertex="1">
                    <mxGeometry x="1031.6030534351146" y="441.8032786885246" width="10" height="5" as="geometry"/>
                </mxCell>
                <mxCell id="211" style="edgeStyle=orthogonalEdgeStyle;html=1;exitX=0;exitY=0.75;exitDx=0;exitDy=0;rounded=0;curved=0;endArrow=halfCircle;endFill=0;entryX=0.233;entryY=0.248;entryDx=0;entryDy=0;entryPerimeter=0;" parent="1" source="153" target="184" edge="1">
                    <mxGeometry relative="1" as="geometry">
                        <mxPoint x="1774.0000000000002" y="265.50000000000006" as="targetPoint"/>
                    </mxGeometry>
                </mxCell>
                <mxCell id="153" value="«Componet»&lt;br&gt;&lt;b&gt;Victim Detection&amp;nbsp;&lt;/b&gt;&lt;div&gt;&lt;b&gt;and Reporting&lt;/b&gt;&lt;/div&gt;" style="html=1;dropTarget=0;whiteSpace=wrap;" parent="1" vertex="1">
                    <mxGeometry x="1813.99893129771" y="185.5031147540983" width="159.38931297709922" height="72.29508196721311" as="geometry"/>
                </mxCell>
                <mxCell id="154" value="" style="shape=module;jettyWidth=8;jettyHeight=4;" parent="153" vertex="1">
                    <mxGeometry x="1" width="20" height="20" relative="1" as="geometry">
                        <mxPoint x="-27" y="7" as="offset"/>
                    </mxGeometry>
                </mxCell>
                <mxCell id="155" value="«Componet»&lt;br&gt;&lt;b&gt;Triage System&lt;/b&gt;" style="html=1;dropTarget=0;whiteSpace=wrap;" parent="1" vertex="1">
                    <mxGeometry x="1813.99893129771" y="425.5031147540983" width="159.38931297709922" height="72.29508196721311" as="geometry"/>
                </mxCell>
                <mxCell id="156" value="" style="shape=module;jettyWidth=8;jettyHeight=4;" parent="155" vertex="1">
                    <mxGeometry x="1" width="20" height="20" relative="1" as="geometry">
                        <mxPoint x="-27" y="7" as="offset"/>
                    </mxGeometry>
                </mxCell>
                <mxCell id="164" value="" style="rounded=0;orthogonalLoop=1;jettySize=auto;html=1;endArrow=halfCircle;endFill=0;endSize=6;strokeWidth=1;sketch=0;exitX=0.5;exitY=0;exitDx=0;exitDy=0;" parent="1" source="155" target="166" edge="1">
                    <mxGeometry relative="1" as="geometry">
                        <mxPoint x="1884" y="360.5" as="sourcePoint"/>
                    </mxGeometry>
                </mxCell>
                <mxCell id="165" value="" style="rounded=0;orthogonalLoop=1;jettySize=auto;html=1;endArrow=open;endFill=0;sketch=0;sourcePerimeterSpacing=0;targetPerimeterSpacing=0;endSize=10;exitX=0.5;exitY=1;exitDx=0;exitDy=0;dashed=1;dashPattern=8 8;" parent="1" source="153" target="166" edge="1">
                    <mxGeometry relative="1" as="geometry">
                        <mxPoint x="1844" y="360.5" as="sourcePoint"/>
                    </mxGeometry>
                </mxCell>
                <mxCell id="166" value="" style="ellipse;whiteSpace=wrap;html=1;align=center;aspect=fixed;fillColor=none;strokeColor=none;resizable=0;perimeter=centerPerimeter;rotatable=0;allowArrows=0;points=[];outlineConnect=1;" parent="1" vertex="1">
                    <mxGeometry x="1888.69" y="335.5" width="10" height="10" as="geometry"/>
                </mxCell>
                <mxCell id="169" value="" style="html=1;rounded=0;" parent="1" vertex="1">
                    <mxGeometry x="1714" y="155.5" width="30" height="30" as="geometry"/>
                </mxCell>
                <mxCell id="170" value="" style="endArrow=none;html=1;rounded=0;align=center;verticalAlign=top;endFill=0;labelBackgroundColor=none;endSize=2;" parent="1" source="169" target="171" edge="1">
                    <mxGeometry relative="1" as="geometry"/>
                </mxCell>
                <mxCell id="202" value="Audio" style="edgeLabel;html=1;align=center;verticalAlign=middle;resizable=0;points=[];" parent="170" vertex="1" connectable="0">
                    <mxGeometry x="0.2261" y="-2" relative="1" as="geometry">
                        <mxPoint x="-44" y="73" as="offset"/>
                    </mxGeometry>
                </mxCell>
                <mxCell id="205" value="Position" style="edgeLabel;html=1;align=center;verticalAlign=middle;resizable=0;points=[];" parent="170" vertex="1" connectable="0">
                    <mxGeometry x="-0.3636" y="1" relative="1" as="geometry">
                        <mxPoint x="-47" y="-24" as="offset"/>
                    </mxGeometry>
                </mxCell>
                <mxCell id="171" value="" style="ellipse;html=1;fontSize=11;align=center;fillColor=none;points=[];aspect=fixed;resizable=0;verticalAlign=bottom;labelPosition=center;verticalLabelPosition=top;flipH=1;" parent="1" vertex="1">
                    <mxGeometry x="1766" y="166.5" width="8" height="8" as="geometry"/>
                </mxCell>
                <mxCell id="172" value="" style="html=1;rounded=0;" parent="1" vertex="1">
                    <mxGeometry x="1714" y="257.8" width="30" height="30" as="geometry"/>
                </mxCell>
                <mxCell id="173" value="" style="endArrow=none;html=1;rounded=0;align=center;verticalAlign=top;endFill=0;labelBackgroundColor=none;endSize=2;" parent="1" source="172" target="174" edge="1">
                    <mxGeometry relative="1" as="geometry"/>
                </mxCell>
                <mxCell id="203" value="&lt;div&gt;&lt;span style=&quot;color: rgb(0, 0, 0);&quot;&gt;RGB&lt;/span&gt;&lt;/div&gt;&lt;span style=&quot;color: rgb(0, 0, 0);&quot;&gt;PointClound&lt;/span&gt;&lt;div&gt;Depth&lt;/div&gt;&lt;div&gt;Infrared&lt;/div&gt;" style="edgeLabel;html=1;align=center;verticalAlign=middle;resizable=0;points=[];" parent="173" vertex="1" connectable="0">
                    <mxGeometry x="-0.1515" y="-1" relative="1" as="geometry">
                        <mxPoint x="-59" y="132" as="offset"/>
                    </mxGeometry>
                </mxCell>
                <mxCell id="174" value="" style="ellipse;html=1;fontSize=11;align=center;fillColor=none;points=[];aspect=fixed;resizable=0;verticalAlign=bottom;labelPosition=center;verticalLabelPosition=top;flipH=1;" parent="1" vertex="1">
                    <mxGeometry x="1766" y="268.8" width="8" height="8" as="geometry"/>
                </mxCell>
                <mxCell id="175" value="" style="html=1;rounded=0;" parent="1" vertex="1">
                    <mxGeometry x="1714" y="335.5" width="30" height="30" as="geometry"/>
                </mxCell>
                <mxCell id="176" value="" style="endArrow=none;html=1;rounded=0;align=center;verticalAlign=top;endFill=0;labelBackgroundColor=none;endSize=2;" parent="1" source="175" target="177" edge="1">
                    <mxGeometry relative="1" as="geometry"/>
                </mxCell>
                <mxCell id="177" value="" style="ellipse;html=1;fontSize=11;align=center;fillColor=none;points=[];aspect=fixed;resizable=0;verticalAlign=bottom;labelPosition=center;verticalLabelPosition=top;flipH=1;" parent="1" vertex="1">
                    <mxGeometry x="1775" y="347.5" width="8" height="8" as="geometry"/>
                </mxCell>
                <mxCell id="178" value="" style="html=1;rounded=0;" parent="1" vertex="1">
                    <mxGeometry x="1714" y="505.5" width="30" height="30" as="geometry"/>
                </mxCell>
                <mxCell id="179" value="" style="endArrow=none;html=1;rounded=0;align=center;verticalAlign=top;endFill=0;labelBackgroundColor=none;endSize=2;sketch=1;curveFitting=1;jiggle=2;" parent="1" source="178" target="180" edge="1">
                    <mxGeometry relative="1" as="geometry"/>
                </mxCell>
                <mxCell id="206" value="Status code" style="edgeLabel;html=1;align=center;verticalAlign=middle;resizable=0;points=[];" parent="179" vertex="1" connectable="0">
                    <mxGeometry x="-0.0606" y="4" relative="1" as="geometry">
                        <mxPoint x="-60" y="-26" as="offset"/>
                    </mxGeometry>
                </mxCell>
                <mxCell id="180" value="" style="ellipse;html=1;fontSize=11;align=center;fillColor=none;points=[];aspect=fixed;resizable=0;verticalAlign=bottom;labelPosition=center;verticalLabelPosition=top;flipH=1;" parent="1" vertex="1">
                    <mxGeometry x="1766" y="516.5" width="8" height="8" as="geometry"/>
                </mxCell>
                <mxCell id="181" value="" style="rounded=0;orthogonalLoop=1;jettySize=auto;html=1;endArrow=halfCircle;endFill=0;endSize=6;strokeWidth=1;sketch=0;fontSize=12;exitX=0;exitY=0.25;exitDx=0;exitDy=0;entryX=0.292;entryY=0.615;entryDx=0;entryDy=0;entryPerimeter=0;edgeStyle=orthogonalEdgeStyle;" parent="1" source="153" target="171" edge="1">
                    <mxGeometry relative="1" as="geometry">
                        <mxPoint x="1799" y="210.5" as="sourcePoint"/>
                    </mxGeometry>
                </mxCell>
                <mxCell id="182" value="" style="ellipse;whiteSpace=wrap;html=1;align=center;aspect=fixed;fillColor=none;strokeColor=none;resizable=0;perimeter=centerPerimeter;rotatable=0;allowArrows=0;points=[];outlineConnect=1;" parent="1" vertex="1">
                    <mxGeometry x="1774" y="205.5" width="10" height="10" as="geometry"/>
                </mxCell>
                <mxCell id="183" value="" style="rounded=0;orthogonalLoop=1;jettySize=auto;html=1;endArrow=halfCircle;endFill=0;endSize=6;strokeWidth=1;sketch=0;fontSize=12;exitX=0.25;exitY=1;exitDx=0;exitDy=0;entryX=0.212;entryY=-0.019;entryDx=0;entryDy=0;entryPerimeter=0;edgeStyle=orthogonalEdgeStyle;" parent="1" source="153" target="177" edge="1">
                    <mxGeometry relative="1" as="geometry">
                        <mxPoint x="1791" y="272.5" as="sourcePoint"/>
                        <mxPoint x="1784" y="345.5" as="targetPoint"/>
                        <Array as="points">
                            <mxPoint x="1834" y="257.5"/>
                            <mxPoint x="1834" y="302.5"/>
                            <mxPoint x="1781" y="302.5"/>
                        </Array>
                    </mxGeometry>
                </mxCell>
                <mxCell id="184" value="" style="ellipse;whiteSpace=wrap;html=1;align=center;aspect=fixed;fillColor=none;strokeColor=none;resizable=0;perimeter=centerPerimeter;rotatable=0;allowArrows=0;points=[];outlineConnect=1;" parent="1" vertex="1">
                    <mxGeometry x="1766" y="267.5" width="10" height="10" as="geometry"/>
                </mxCell>
                <mxCell id="185" value="" style="rounded=0;orthogonalLoop=1;jettySize=auto;html=1;endArrow=halfCircle;endFill=0;endSize=6;strokeWidth=1;sketch=0;fontSize=12;entryX=0.375;entryY=0.512;entryDx=0;entryDy=0;entryPerimeter=0;exitX=0;exitY=0.25;exitDx=0;exitDy=0;edgeStyle=orthogonalEdgeStyle;" parent="1" source="155" target="177" edge="1">
                    <mxGeometry relative="1" as="geometry">
                        <mxPoint x="1809" y="391.5" as="sourcePoint"/>
                    </mxGeometry>
                </mxCell>
                <mxCell id="186" value="" style="ellipse;whiteSpace=wrap;html=1;align=center;aspect=fixed;fillColor=none;strokeColor=none;resizable=0;perimeter=centerPerimeter;rotatable=0;allowArrows=0;points=[];outlineConnect=1;" parent="1" vertex="1">
                    <mxGeometry x="1784" y="386.5" width="10" height="10" as="geometry"/>
                </mxCell>
                <mxCell id="188" value="" style="ellipse;whiteSpace=wrap;html=1;align=center;aspect=fixed;fillColor=none;strokeColor=none;resizable=0;perimeter=centerPerimeter;rotatable=0;allowArrows=0;points=[];outlineConnect=1;" parent="1" vertex="1">
                    <mxGeometry x="1776" y="485.5" width="10" height="10" as="geometry"/>
                </mxCell>
                <mxCell id="189" value="" style="html=1;rounded=0;" parent="1" vertex="1">
                    <mxGeometry x="2034" y="206.5" width="30" height="30" as="geometry"/>
                </mxCell>
                <mxCell id="190" value="" style="endArrow=none;html=1;rounded=0;align=center;verticalAlign=top;endFill=0;labelBackgroundColor=none;endSize=2;exitX=0;exitY=0.5;exitDx=0;exitDy=0;entryX=0.92;entryY=0.49;entryDx=0;entryDy=0;entryPerimeter=0;" parent="1" source="189" target="191" edge="1">
                    <mxGeometry relative="1" as="geometry"/>
                </mxCell>
                <mxCell id="191" value="" style="shape=requiredInterface;html=1;fontSize=11;align=center;fillColor=none;points=[];aspect=fixed;resizable=0;verticalAlign=bottom;labelPosition=center;verticalLabelPosition=top;flipH=1;direction=west;" parent="1" vertex="1">
                    <mxGeometry x="2004" y="216.65" width="5" height="10" as="geometry"/>
                </mxCell>
                <mxCell id="192" value="" style="html=1;rounded=0;" parent="1" vertex="1">
                    <mxGeometry x="2034" y="325.5" width="30" height="30" as="geometry"/>
                </mxCell>
                <mxCell id="193" value="" style="endArrow=none;html=1;rounded=0;align=center;verticalAlign=top;endFill=0;labelBackgroundColor=none;endSize=2;exitX=0;exitY=0.5;exitDx=0;exitDy=0;entryX=0.92;entryY=0.49;entryDx=0;entryDy=0;entryPerimeter=0;" parent="1" source="192" target="194" edge="1">
                    <mxGeometry relative="1" as="geometry"/>
                </mxCell>
                <mxCell id="209" value="Audio" style="edgeLabel;html=1;align=center;verticalAlign=middle;resizable=0;points=[];" parent="193" vertex="1" connectable="0">
                    <mxGeometry x="-0.1082" y="-2" relative="1" as="geometry">
                        <mxPoint x="62" y="-8" as="offset"/>
                    </mxGeometry>
                </mxCell>
                <mxCell id="194" value="" style="shape=requiredInterface;html=1;fontSize=11;align=center;fillColor=none;points=[];aspect=fixed;resizable=0;verticalAlign=bottom;labelPosition=center;verticalLabelPosition=top;flipH=1;direction=west;" parent="1" vertex="1">
                    <mxGeometry x="2004" y="335.5" width="5" height="10" as="geometry"/>
                </mxCell>
                <mxCell id="195" value="" style="html=1;rounded=0;" parent="1" vertex="1">
                    <mxGeometry x="2034" y="446.65" width="30" height="30" as="geometry"/>
                </mxCell>
                <mxCell id="196" value="" style="endArrow=none;html=1;rounded=0;align=center;verticalAlign=top;endFill=0;labelBackgroundColor=none;endSize=2;exitX=0;exitY=0.5;exitDx=0;exitDy=0;entryX=0.92;entryY=0.49;entryDx=0;entryDy=0;entryPerimeter=0;" parent="1" source="195" target="197" edge="1">
                    <mxGeometry relative="1" as="geometry">
                        <Array as="points"/>
                    </mxGeometry>
                </mxCell>
                <mxCell id="213" value="Text" style="edgeLabel;html=1;align=center;verticalAlign=middle;resizable=0;points=[];" parent="196" vertex="1" connectable="0">
                    <mxGeometry x="0.0682" relative="1" as="geometry">
                        <mxPoint as="offset"/>
                    </mxGeometry>
                </mxCell>
                <mxCell id="214" value="String" style="edgeLabel;html=1;align=center;verticalAlign=middle;resizable=0;points=[];" parent="196" vertex="1" connectable="0">
                    <mxGeometry x="0.1558" y="3" relative="1" as="geometry">
                        <mxPoint x="55" y="-29" as="offset"/>
                    </mxGeometry>
                </mxCell>
                <mxCell id="197" value="" style="shape=requiredInterface;html=1;fontSize=11;align=center;fillColor=none;points=[];aspect=fixed;resizable=0;verticalAlign=bottom;labelPosition=center;verticalLabelPosition=top;flipH=1;direction=west;" parent="1" vertex="1">
                    <mxGeometry x="2004" y="456.8" width="5" height="10" as="geometry"/>
                </mxCell>
                <mxCell id="198" style="edgeStyle=none;html=1;exitX=0.75;exitY=0;exitDx=0;exitDy=0;endArrow=oval;endFill=0;rounded=0;curved=0;" parent="1" source="155" edge="1">
                    <mxGeometry relative="1" as="geometry">
                        <mxPoint x="2004" y="340.5" as="targetPoint"/>
                        <Array as="points">
                            <mxPoint x="1934" y="340.5"/>
                        </Array>
                    </mxGeometry>
                </mxCell>
                <mxCell id="199" style="edgeStyle=none;html=1;endArrow=oval;endFill=0;" parent="1" source="153" edge="1">
                    <mxGeometry relative="1" as="geometry">
                        <mxPoint x="2004" y="221.5" as="targetPoint"/>
                    </mxGeometry>
                </mxCell>
                <mxCell id="200" style="edgeStyle=none;html=1;endArrow=oval;endFill=0;" parent="1" source="155" edge="1">
                    <mxGeometry relative="1" as="geometry">
                        <mxPoint x="2004" y="461.5" as="targetPoint"/>
                    </mxGeometry>
                </mxCell>
                <mxCell id="204" style="edgeStyle=orthogonalEdgeStyle;html=1;elbow=vertical;endArrow=halfCircle;endFill=0;entryX=0.268;entryY=0.477;entryDx=0;entryDy=0;entryPerimeter=0;rounded=0;curved=0;" parent="1" target="184" edge="1">
                    <mxGeometry relative="1" as="geometry">
                        <mxPoint x="1854" y="425.5" as="sourcePoint"/>
                        <mxPoint x="1774" y="272.5" as="targetPoint"/>
                        <Array as="points">
                            <mxPoint x="1854" y="272.5"/>
                        </Array>
                    </mxGeometry>
                </mxCell>
                <mxCell id="207" value="" style="rounded=0;orthogonalLoop=1;jettySize=auto;html=1;endArrow=halfCircle;endFill=0;endSize=6;strokeWidth=1;sketch=0;fontSize=12;curved=1;exitX=0;exitY=0.75;exitDx=0;exitDy=0;" parent="1" source="155" edge="1">
                    <mxGeometry relative="1" as="geometry">
                        <mxPoint x="1799" y="490.5" as="sourcePoint"/>
                        <mxPoint x="1771" y="521.5" as="targetPoint"/>
                        <Array as="points">
                            <mxPoint x="1774" y="515.5"/>
                        </Array>
                    </mxGeometry>
                </mxCell>
                <mxCell id="208" value="" style="ellipse;whiteSpace=wrap;html=1;align=center;aspect=fixed;fillColor=none;strokeColor=none;resizable=0;perimeter=centerPerimeter;rotatable=0;allowArrows=0;points=[];outlineConnect=1;" parent="1" vertex="1">
                    <mxGeometry x="1774" y="485.5" width="10" height="10" as="geometry"/>
                </mxCell>
                <mxCell id="215" value="String" style="edgeLabel;html=1;align=center;verticalAlign=middle;resizable=0;points=[];" parent="1" vertex="1" connectable="0">
                    <mxGeometry x="2073.995638410051" y="195.50349532492055" as="geometry"/>
                </mxCell>
                <mxCell id="304" value="" style="edgeStyle=none;html=1;endArrow=oval;endFill=0;" edge="1" parent="1" target="276">
                    <mxGeometry relative="1" as="geometry">
                        <mxPoint x="1984" y="751.5" as="sourcePoint"/>
                    </mxGeometry>
                </mxCell>
                <mxCell id="259" value="«Componet»&lt;br&gt;&lt;b&gt;Obastacle and&amp;nbsp;&lt;/b&gt;&lt;div&gt;&lt;b&gt;Damage Detection&lt;/b&gt;&lt;/div&gt;" style="html=1;dropTarget=0;whiteSpace=wrap;" vertex="1" parent="1">
                    <mxGeometry x="1823.3068702290075" y="735.4995081967213" width="159.38931297709922" height="72.29508196721311" as="geometry"/>
                </mxCell>
                <mxCell id="260" value="" style="shape=module;jettyWidth=8;jettyHeight=4;" vertex="1" parent="259">
                    <mxGeometry x="1" width="20" height="20" relative="1" as="geometry">
                        <mxPoint x="-27" y="7" as="offset"/>
                    </mxGeometry>
                </mxCell>
                <mxCell id="261" value="«Componet»&lt;br&gt;&lt;b&gt;Structural Risk Assessment&lt;/b&gt;" style="html=1;dropTarget=0;whiteSpace=wrap;" vertex="1" parent="1">
                    <mxGeometry x="1823.3068702290075" y="1005.4995081967213" width="159.38931297709922" height="72.29508196721311" as="geometry"/>
                </mxCell>
                <mxCell id="262" value="" style="shape=module;jettyWidth=8;jettyHeight=4;" vertex="1" parent="261">
                    <mxGeometry x="1" width="20" height="20" relative="1" as="geometry">
                        <mxPoint x="-27" y="7" as="offset"/>
                    </mxGeometry>
                </mxCell>
                <mxCell id="263" value="" style="rounded=0;orthogonalLoop=1;jettySize=auto;html=1;endArrow=halfCircle;endFill=0;endSize=6;strokeWidth=1;sketch=0;exitX=0.5;exitY=0;exitDx=0;exitDy=0;" edge="1" target="265" parent="1" source="261">
                    <mxGeometry relative="1" as="geometry">
                        <mxPoint x="1924" y="1120.5" as="sourcePoint"/>
                    </mxGeometry>
                </mxCell>
                <mxCell id="264" value="" style="rounded=0;orthogonalLoop=1;jettySize=auto;html=1;endArrow=oval;endFill=0;sketch=0;sourcePerimeterSpacing=0;targetPerimeterSpacing=0;endSize=10;exitX=0.5;exitY=1;exitDx=0;exitDy=0;" edge="1" target="265" parent="1" source="259">
                    <mxGeometry relative="1" as="geometry">
                        <mxPoint x="1884" y="1120.5" as="sourcePoint"/>
                    </mxGeometry>
                </mxCell>
                <mxCell id="265" value="" style="ellipse;whiteSpace=wrap;html=1;align=center;aspect=fixed;fillColor=none;strokeColor=none;resizable=0;perimeter=centerPerimeter;rotatable=0;allowArrows=0;points=[];outlineConnect=1;" vertex="1" parent="1">
                    <mxGeometry x="1898.69" y="905.5" width="10" height="10" as="geometry"/>
                </mxCell>
                <mxCell id="268" value="" style="html=1;rounded=0;" vertex="1" parent="1">
                    <mxGeometry x="1714" y="735.5" width="30" height="30" as="geometry"/>
                </mxCell>
                <mxCell id="269" value="" style="endArrow=none;html=1;rounded=0;align=center;verticalAlign=top;endFill=0;labelBackgroundColor=none;endSize=2;" edge="1" source="268" target="270" parent="1">
                    <mxGeometry relative="1" as="geometry"/>
                </mxCell>
                <mxCell id="284" value="&lt;div&gt;&lt;br&gt;&lt;/div&gt;&lt;span style=&quot;color: rgb(0, 0, 0);&quot;&gt;PointClound&lt;/span&gt;&lt;div&gt;Depth&lt;/div&gt;&lt;div&gt;Infrared&lt;/div&gt;" style="edgeLabel;html=1;align=center;verticalAlign=middle;resizable=0;points=[];" vertex="1" connectable="0" parent="269">
                    <mxGeometry x="0.0182" y="2" relative="1" as="geometry">
                        <mxPoint x="-81" y="-43" as="offset"/>
                    </mxGeometry>
                </mxCell>
                <mxCell id="270" value="" style="ellipse;html=1;fontSize=11;align=center;fillColor=none;points=[];aspect=fixed;resizable=0;verticalAlign=bottom;labelPosition=center;verticalLabelPosition=top;flipH=1;" vertex="1" parent="1">
                    <mxGeometry x="1766" y="746.5" width="8" height="8" as="geometry"/>
                </mxCell>
                <mxCell id="271" value="" style="html=1;rounded=0;" vertex="1" parent="1">
                    <mxGeometry x="1714" y="1026.65" width="30" height="30" as="geometry"/>
                </mxCell>
                <mxCell id="272" value="" style="endArrow=none;html=1;rounded=0;align=center;verticalAlign=top;endFill=0;labelBackgroundColor=none;endSize=2;" edge="1" source="271" target="273" parent="1">
                    <mxGeometry relative="1" as="geometry"/>
                </mxCell>
                <mxCell id="283" value="Linear Acceleration&lt;div&gt;Angula Velocity&lt;/div&gt;" style="edgeLabel;html=1;align=center;verticalAlign=middle;resizable=0;points=[];" vertex="1" connectable="0" parent="272">
                    <mxGeometry x="0.303" y="1" relative="1" as="geometry">
                        <mxPoint x="-94" y="-35" as="offset"/>
                    </mxGeometry>
                </mxCell>
                <mxCell id="273" value="" style="ellipse;html=1;fontSize=11;align=center;fillColor=none;points=[];aspect=fixed;resizable=0;verticalAlign=bottom;labelPosition=center;verticalLabelPosition=top;flipH=1;" vertex="1" parent="1">
                    <mxGeometry x="1766" y="1037.65" width="8" height="8" as="geometry"/>
                </mxCell>
                <mxCell id="274" value="" style="html=1;rounded=0;" vertex="1" parent="1">
                    <mxGeometry x="2064" y="736.5" width="30" height="30" as="geometry"/>
                </mxCell>
                <mxCell id="275" value="" style="endArrow=none;html=1;rounded=0;align=center;verticalAlign=top;endFill=0;labelBackgroundColor=none;endSize=2;exitX=0;exitY=0.5;exitDx=0;exitDy=0;entryX=1.21;entryY=0.49;entryDx=0;entryDy=0;entryPerimeter=0;" edge="1" source="274" target="276" parent="1">
                    <mxGeometry relative="1" as="geometry"/>
                </mxCell>
                <mxCell id="285" value="Point Cloud" style="edgeLabel;html=1;align=center;verticalAlign=middle;resizable=0;points=[];" vertex="1" connectable="0" parent="275">
                    <mxGeometry x="0.1394" y="4" relative="1" as="geometry">
                        <mxPoint x="-18" y="-24" as="offset"/>
                    </mxGeometry>
                </mxCell>
                <mxCell id="276" value="" style="shape=requiredInterface;html=1;fontSize=11;align=center;fillColor=none;points=[];aspect=fixed;resizable=0;verticalAlign=bottom;labelPosition=center;verticalLabelPosition=top;flipH=1;direction=west;" vertex="1" parent="1">
                    <mxGeometry x="2029" y="746.5" width="5" height="10" as="geometry"/>
                </mxCell>
                <mxCell id="277" value="" style="html=1;rounded=0;" vertex="1" parent="1">
                    <mxGeometry x="2064" y="900.5" width="30" height="30" as="geometry"/>
                </mxCell>
                <mxCell id="278" value="" style="endArrow=none;html=1;rounded=0;align=center;verticalAlign=top;endFill=0;labelBackgroundColor=none;endSize=2;exitX=0;exitY=0.5;exitDx=0;exitDy=0;entryX=1.21;entryY=0.49;entryDx=0;entryDy=0;entryPerimeter=0;" edge="1" parent="1" source="277" target="279">
                    <mxGeometry relative="1" as="geometry"/>
                </mxCell>
                <mxCell id="296" value="String" style="edgeLabel;html=1;align=center;verticalAlign=middle;resizable=0;points=[];" vertex="1" connectable="0" parent="278">
                    <mxGeometry x="-0.0166" y="-2" relative="1" as="geometry">
                        <mxPoint x="-1" y="-23" as="offset"/>
                    </mxGeometry>
                </mxCell>
                <mxCell id="279" value="" style="shape=requiredInterface;html=1;fontSize=11;align=center;fillColor=none;points=[];aspect=fixed;resizable=0;verticalAlign=bottom;labelPosition=center;verticalLabelPosition=top;flipH=1;direction=west;" vertex="1" parent="1">
                    <mxGeometry x="2029" y="910.5" width="5" height="10" as="geometry"/>
                </mxCell>
                <mxCell id="280" value="" style="html=1;rounded=0;" vertex="1" parent="1">
                    <mxGeometry x="2064" y="1026.65" width="30" height="30" as="geometry"/>
                </mxCell>
                <mxCell id="281" value="" style="endArrow=none;html=1;rounded=0;align=center;verticalAlign=top;endFill=0;labelBackgroundColor=none;endSize=2;exitX=0;exitY=0.5;exitDx=0;exitDy=0;entryX=1.21;entryY=0.49;entryDx=0;entryDy=0;entryPerimeter=0;" edge="1" parent="1" source="280" target="282">
                    <mxGeometry relative="1" as="geometry"/>
                </mxCell>
                <mxCell id="282" value="" style="shape=requiredInterface;html=1;fontSize=11;align=center;fillColor=none;points=[];aspect=fixed;resizable=0;verticalAlign=bottom;labelPosition=center;verticalLabelPosition=top;flipH=1;direction=west;" vertex="1" parent="1">
                    <mxGeometry x="2029" y="1036.65" width="5" height="10" as="geometry"/>
                </mxCell>
                <mxCell id="286" value="" style="rounded=0;orthogonalLoop=1;jettySize=auto;html=1;endArrow=halfCircle;endFill=0;endSize=6;strokeWidth=1;sketch=0;fontSize=12;curved=0;entryX=0.569;entryY=0.481;entryDx=0;entryDy=0;entryPerimeter=0;" edge="1" target="273" parent="1" source="261">
                    <mxGeometry relative="1" as="geometry">
                        <mxPoint x="1679" y="925.5" as="sourcePoint"/>
                        <mxPoint x="1770" y="1038.5" as="targetPoint"/>
                        <Array as="points"/>
                    </mxGeometry>
                </mxCell>
                <mxCell id="287" value="" style="ellipse;whiteSpace=wrap;html=1;align=center;aspect=fixed;fillColor=none;strokeColor=none;resizable=0;perimeter=centerPerimeter;rotatable=0;allowArrows=0;points=[];outlineConnect=1;" vertex="1" parent="1">
                    <mxGeometry x="1654" y="920.5" width="10" height="10" as="geometry"/>
                </mxCell>
                <mxCell id="289" value="" style="rounded=0;orthogonalLoop=1;jettySize=auto;html=1;endArrow=halfCircle;endFill=0;endSize=6;strokeWidth=1;sketch=0;fontSize=12;curved=0;entryX=0.403;entryY=0.597;entryDx=0;entryDy=0;entryPerimeter=0;" edge="1" target="270" parent="1">
                    <mxGeometry relative="1" as="geometry">
                        <mxPoint x="1823" y="751.5" as="sourcePoint"/>
                        <Array as="points">
                            <mxPoint x="1823" y="751.5"/>
                        </Array>
                    </mxGeometry>
                </mxCell>
                <mxCell id="290" value="" style="ellipse;whiteSpace=wrap;html=1;align=center;aspect=fixed;fillColor=none;strokeColor=none;resizable=0;perimeter=centerPerimeter;rotatable=0;allowArrows=0;points=[];outlineConnect=1;" vertex="1" parent="1">
                    <mxGeometry x="1776" y="726.5" width="10" height="10" as="geometry"/>
                </mxCell>
                <mxCell id="291" value="" style="rounded=0;orthogonalLoop=1;jettySize=auto;html=1;endArrow=halfCircle;endFill=0;endSize=6;strokeWidth=1;sketch=0;fontSize=12;curved=0;exitX=0;exitY=0.25;exitDx=0;exitDy=0;" edge="1" target="270" parent="1" source="261">
                    <mxGeometry relative="1" as="geometry">
                        <mxPoint x="1879" y="890.5" as="sourcePoint"/>
                        <Array as="points">
                            <mxPoint x="1770" y="1023.5"/>
                        </Array>
                    </mxGeometry>
                </mxCell>
                <mxCell id="292" value="" style="ellipse;whiteSpace=wrap;html=1;align=center;aspect=fixed;fillColor=none;strokeColor=none;resizable=0;perimeter=centerPerimeter;rotatable=0;allowArrows=0;points=[];outlineConnect=1;" vertex="1" parent="1">
                    <mxGeometry x="1854" y="885.5" width="10" height="10" as="geometry"/>
                </mxCell>
                <mxCell id="299" style="edgeStyle=none;html=1;exitX=0.75;exitY=0;exitDx=0;exitDy=0;rounded=0;curved=0;endArrow=oval;endFill=0;" edge="1" parent="1" source="261" target="279">
                    <mxGeometry relative="1" as="geometry">
                        <mxPoint x="2024" y="914.5" as="targetPoint"/>
                        <Array as="points">
                            <mxPoint x="1944" y="915.5"/>
                        </Array>
                    </mxGeometry>
                </mxCell>
                <mxCell id="300" style="edgeStyle=none;html=1;exitX=1;exitY=0.5;exitDx=0;exitDy=0;endArrow=oval;endFill=0;" edge="1" parent="1" source="261" target="282">
                    <mxGeometry relative="1" as="geometry">
                        <mxPoint x="2024" y="1045.5" as="targetPoint"/>
                    </mxGeometry>
                </mxCell>
                <mxCell id="301" value="String" style="edgeLabel;html=1;align=center;verticalAlign=middle;resizable=0;points=[];" vertex="1" connectable="0" parent="1">
                    <mxGeometry x="2063.9955287426396" y="930.49877726092" as="geometry">
                        <mxPoint x="-17" y="94" as="offset"/>
                    </mxGeometry>
                </mxCell>
                <mxCell id="305" value="«Componet»&lt;br&gt;&lt;b&gt;Speakers&lt;/b&gt;" style="html=1;dropTarget=0;whiteSpace=wrap;" vertex="1" parent="1">
                    <mxGeometry x="654.9968702290075" y="940.9995081967213" width="159.38931297709922" height="72.29508196721311" as="geometry"/>
                </mxCell>
                <mxCell id="306" value="" style="shape=module;jettyWidth=8;jettyHeight=4;" vertex="1" parent="305">
                    <mxGeometry x="1" width="20" height="20" relative="1" as="geometry">
                        <mxPoint x="-27" y="7" as="offset"/>
                    </mxGeometry>
                </mxCell>
                <mxCell id="307" value="«Componet»&lt;br&gt;&lt;b&gt;Microphones&lt;/b&gt;" style="html=1;dropTarget=0;whiteSpace=wrap;" vertex="1" parent="1">
                    <mxGeometry x="654.9968702290075" y="1200.9995081967213" width="159.38931297709922" height="72.29508196721311" as="geometry"/>
                </mxCell>
                <mxCell id="308" value="" style="shape=module;jettyWidth=8;jettyHeight=4;" vertex="1" parent="307">
                    <mxGeometry x="1" width="20" height="20" relative="1" as="geometry">
                        <mxPoint x="-27" y="7" as="offset"/>
                    </mxGeometry>
                </mxCell>
                <mxCell id="351" style="edgeStyle=none;html=1;exitX=0.75;exitY=1;exitDx=0;exitDy=0;rounded=0;curved=0;dashed=1;endArrow=open;endFill=0;" edge="1" parent="1" source="310">
                    <mxGeometry relative="1" as="geometry">
                        <mxPoint x="571" y="1156" as="targetPoint"/>
                        <Array as="points">
                            <mxPoint x="391" y="996"/>
                            <mxPoint x="571" y="996"/>
                        </Array>
                    </mxGeometry>
                </mxCell>
                <mxCell id="310" value="«Componet»&lt;br&gt;&lt;b&gt;Real Time Reporting&lt;/b&gt;" style="html=1;dropTarget=0;whiteSpace=wrap;" vertex="1" parent="1">
                    <mxGeometry x="270.9968702290075" y="845.9995081967212" width="159.38931297709922" height="72.29508196721311" as="geometry"/>
                </mxCell>
                <mxCell id="311" value="" style="shape=module;jettyWidth=8;jettyHeight=4;" vertex="1" parent="310">
                    <mxGeometry x="1" width="20" height="20" relative="1" as="geometry">
                        <mxPoint x="-27" y="7" as="offset"/>
                    </mxGeometry>
                </mxCell>
                <mxCell id="312" value="«Componet»&lt;br&gt;&lt;b&gt;Mission Status&amp;nbsp;&lt;/b&gt;&lt;div&gt;&lt;b&gt;Notification&lt;/b&gt;&lt;/div&gt;" style="html=1;dropTarget=0;whiteSpace=wrap;" vertex="1" parent="1">
                    <mxGeometry x="270.9968702290075" y="1064.8495081967212" width="159.38931297709922" height="72.29508196721311" as="geometry"/>
                </mxCell>
                <mxCell id="313" value="" style="shape=module;jettyWidth=8;jettyHeight=4;" vertex="1" parent="312">
                    <mxGeometry x="1" width="20" height="20" relative="1" as="geometry">
                        <mxPoint x="-27" y="7" as="offset"/>
                    </mxGeometry>
                </mxCell>
                <mxCell id="314" value="«Componet»&lt;br&gt;&lt;b&gt;GUI Operator&lt;/b&gt;" style="html=1;dropTarget=0;whiteSpace=wrap;" vertex="1" parent="1">
                    <mxGeometry x="270.9968702290075" y="1275.9995081967215" width="159.38931297709922" height="72.29508196721311" as="geometry"/>
                </mxCell>
                <mxCell id="315" value="" style="shape=module;jettyWidth=8;jettyHeight=4;" vertex="1" parent="314">
                    <mxGeometry x="1" width="20" height="20" relative="1" as="geometry">
                        <mxPoint x="-27" y="7" as="offset"/>
                    </mxGeometry>
                </mxCell>
                <mxCell id="319" value="" style="rounded=0;orthogonalLoop=1;jettySize=auto;html=1;endArrow=halfCircle;endFill=0;endSize=6;strokeWidth=1;sketch=0;exitX=0.25;exitY=0;exitDx=0;exitDy=0;" edge="1" parent="1" source="314">
                    <mxGeometry relative="1" as="geometry">
                        <mxPoint x="348" y="1201" as="sourcePoint"/>
                        <mxPoint x="311" y="1216" as="targetPoint"/>
                    </mxGeometry>
                </mxCell>
                <mxCell id="320" value="" style="rounded=0;orthogonalLoop=1;jettySize=auto;html=1;endArrow=open;endFill=0;sketch=0;sourcePerimeterSpacing=0;targetPerimeterSpacing=0;endSize=10;exitX=0.25;exitY=1;exitDx=0;exitDy=0;dashed=1;" edge="1" parent="1" source="312">
                    <mxGeometry relative="1" as="geometry">
                        <mxPoint x="308" y="1201" as="sourcePoint"/>
                        <mxPoint x="311" y="1216" as="targetPoint"/>
                    </mxGeometry>
                </mxCell>
                <mxCell id="321" value="" style="ellipse;whiteSpace=wrap;html=1;align=center;aspect=fixed;fillColor=none;strokeColor=none;resizable=0;perimeter=centerPerimeter;rotatable=0;allowArrows=0;points=[];outlineConnect=1;" vertex="1" parent="1">
                    <mxGeometry x="541" y="981.41" width="10" height="10" as="geometry"/>
                </mxCell>
                <mxCell id="322" value="" style="rounded=0;orthogonalLoop=1;jettySize=auto;html=1;endArrow=halfCircle;endFill=0;endSize=6;strokeWidth=1;sketch=0;exitX=0.75;exitY=1;exitDx=0;exitDy=0;" edge="1" parent="1" source="312">
                    <mxGeometry relative="1" as="geometry">
                        <mxPoint x="402" y="1200" as="sourcePoint"/>
                        <mxPoint x="391" y="1216" as="targetPoint"/>
                    </mxGeometry>
                </mxCell>
                <mxCell id="323" value="" style="rounded=0;orthogonalLoop=1;jettySize=auto;html=1;endArrow=open;endFill=0;sketch=0;sourcePerimeterSpacing=0;targetPerimeterSpacing=0;endSize=10;exitX=0.75;exitY=0;exitDx=0;exitDy=0;dashed=1;" edge="1" parent="1" source="314">
                    <mxGeometry relative="1" as="geometry">
                        <mxPoint x="362" y="1200" as="sourcePoint"/>
                        <mxPoint x="391" y="1216" as="targetPoint"/>
                    </mxGeometry>
                </mxCell>
                <mxCell id="496" value="Commands" style="edgeLabel;html=1;align=center;verticalAlign=middle;resizable=0;points=[];" vertex="1" connectable="0" parent="323">
                    <mxGeometry x="-0.1387" y="1" relative="1" as="geometry">
                        <mxPoint as="offset"/>
                    </mxGeometry>
                </mxCell>
                <mxCell id="324" value="" style="ellipse;whiteSpace=wrap;html=1;align=center;aspect=fixed;fillColor=none;strokeColor=none;resizable=0;perimeter=centerPerimeter;rotatable=0;allowArrows=0;points=[];outlineConnect=1;" vertex="1" parent="1">
                    <mxGeometry x="561" y="945.41" width="10" height="10" as="geometry"/>
                </mxCell>
                <mxCell id="333" value="" style="ellipse;whiteSpace=wrap;html=1;align=center;aspect=fixed;fillColor=none;strokeColor=none;resizable=0;perimeter=centerPerimeter;rotatable=0;allowArrows=0;points=[];outlineConnect=1;" vertex="1" parent="1">
                    <mxGeometry x="725" y="1021" width="10" height="10" as="geometry"/>
                </mxCell>
                <mxCell id="338" value="" style="ellipse;whiteSpace=wrap;html=1;align=center;aspect=fixed;fillColor=none;strokeColor=none;resizable=0;perimeter=centerPerimeter;rotatable=0;allowArrows=0;points=[];outlineConnect=1;" vertex="1" parent="1">
                    <mxGeometry x="451" y="1026" width="10" height="10" as="geometry"/>
                </mxCell>
                <mxCell id="339" value="" style="rounded=0;orthogonalLoop=1;jettySize=auto;html=1;endArrow=halfCircle;endFill=0;endSize=6;strokeWidth=1;sketch=0;fontSize=12;curved=1;exitX=0.25;exitY=0;exitDx=0;exitDy=0;" edge="1" parent="1" source="312">
                    <mxGeometry relative="1" as="geometry">
                        <mxPoint x="476" y="1031" as="sourcePoint"/>
                        <mxPoint x="311" y="1006" as="targetPoint"/>
                    </mxGeometry>
                </mxCell>
                <mxCell id="340" value="" style="ellipse;whiteSpace=wrap;html=1;align=center;aspect=fixed;fillColor=none;strokeColor=none;resizable=0;perimeter=centerPerimeter;rotatable=0;allowArrows=0;points=[];outlineConnect=1;" vertex="1" parent="1">
                    <mxGeometry x="311" y="1006" width="10" height="10" as="geometry"/>
                </mxCell>
                <mxCell id="341" style="edgeStyle=none;html=1;exitX=0.25;exitY=1;exitDx=0;exitDy=0;dashed=1;endArrow=open;endFill=0;" edge="1" parent="1" source="310">
                    <mxGeometry relative="1" as="geometry">
                        <mxPoint x="311" y="1006" as="targetPoint"/>
                    </mxGeometry>
                </mxCell>
                <mxCell id="495" value="String: Report" style="edgeLabel;html=1;align=center;verticalAlign=middle;resizable=0;points=[];" vertex="1" connectable="0" parent="341">
                    <mxGeometry x="0.0626" y="-1" relative="1" as="geometry">
                        <mxPoint y="13" as="offset"/>
                    </mxGeometry>
                </mxCell>
                <mxCell id="344" value="" style="rounded=0;orthogonalLoop=1;jettySize=auto;html=1;endArrow=halfCircle;endFill=0;endSize=6;strokeWidth=1;sketch=0;fontSize=12;curved=0;exitX=1;exitY=0.5;exitDx=0;exitDy=0;" edge="1" parent="1">
                    <mxGeometry relative="1" as="geometry">
                        <mxPoint x="430.3861832061068" y="1310.147049180328" as="sourcePoint"/>
                        <mxPoint x="571" y="1156" as="targetPoint"/>
                        <Array as="points">
                            <mxPoint x="551" y="1310"/>
                            <mxPoint x="571" y="1310"/>
                        </Array>
                    </mxGeometry>
                </mxCell>
                <mxCell id="345" value="" style="ellipse;whiteSpace=wrap;html=1;align=center;aspect=fixed;fillColor=none;strokeColor=none;resizable=0;perimeter=centerPerimeter;rotatable=0;allowArrows=0;points=[];outlineConnect=1;" vertex="1" parent="1">
                    <mxGeometry x="561" y="1144" width="10" height="10" as="geometry"/>
                </mxCell>
                <mxCell id="361" value="" style="html=1;rounded=0;" vertex="1" parent="1">
                    <mxGeometry x="145" y="851" width="30" height="30" as="geometry"/>
                </mxCell>
                <mxCell id="362" value="" style="endArrow=none;html=1;rounded=0;align=center;verticalAlign=top;endFill=0;labelBackgroundColor=none;endSize=2;" edge="1" source="361" target="363" parent="1">
                    <mxGeometry relative="1" as="geometry"/>
                </mxCell>
                <mxCell id="363" value="" style="ellipse;html=1;fontSize=11;align=center;fillColor=none;points=[];aspect=fixed;resizable=0;verticalAlign=bottom;labelPosition=center;verticalLabelPosition=top;flipH=1;" vertex="1" parent="1">
                    <mxGeometry x="197" y="862" width="8" height="8" as="geometry"/>
                </mxCell>
                <mxCell id="364" value="" style="html=1;rounded=0;" vertex="1" parent="1">
                    <mxGeometry x="145" y="918.29" width="30" height="30" as="geometry"/>
                </mxCell>
                <mxCell id="365" value="" style="endArrow=none;html=1;rounded=0;align=center;verticalAlign=top;endFill=0;labelBackgroundColor=none;endSize=2;" edge="1" parent="1" source="364" target="366">
                    <mxGeometry relative="1" as="geometry"/>
                </mxCell>
                <mxCell id="366" value="" style="ellipse;html=1;fontSize=11;align=center;fillColor=none;points=[];aspect=fixed;resizable=0;verticalAlign=bottom;labelPosition=center;verticalLabelPosition=top;flipH=1;" vertex="1" parent="1">
                    <mxGeometry x="197" y="929.29" width="8" height="8" as="geometry"/>
                </mxCell>
                <mxCell id="367" value="" style="html=1;rounded=0;" vertex="1" parent="1">
                    <mxGeometry x="145" y="1001" width="30" height="30" as="geometry"/>
                </mxCell>
                <mxCell id="368" value="" style="endArrow=none;html=1;rounded=0;align=center;verticalAlign=top;endFill=0;labelBackgroundColor=none;endSize=2;" edge="1" parent="1" source="367" target="369">
                    <mxGeometry relative="1" as="geometry"/>
                </mxCell>
                <mxCell id="369" value="" style="ellipse;html=1;fontSize=11;align=center;fillColor=none;points=[];aspect=fixed;resizable=0;verticalAlign=bottom;labelPosition=center;verticalLabelPosition=top;flipH=1;" vertex="1" parent="1">
                    <mxGeometry x="197" y="1012" width="8" height="8" as="geometry"/>
                </mxCell>
                <mxCell id="370" value="" style="html=1;rounded=0;" vertex="1" parent="1">
                    <mxGeometry x="235" y="782" width="30" height="30" as="geometry"/>
                </mxCell>
                <mxCell id="371" value="" style="endArrow=none;html=1;rounded=0;align=center;verticalAlign=top;endFill=0;labelBackgroundColor=none;endSize=2;exitX=0.5;exitY=1;exitDx=0;exitDy=0;" edge="1" parent="1" source="370" target="372">
                    <mxGeometry relative="1" as="geometry"/>
                </mxCell>
                <mxCell id="372" value="" style="ellipse;html=1;fontSize=11;align=center;fillColor=none;points=[];aspect=fixed;resizable=0;verticalAlign=bottom;labelPosition=center;verticalLabelPosition=top;flipH=1;" vertex="1" parent="1">
                    <mxGeometry x="246" y="823.15" width="8" height="8" as="geometry"/>
                </mxCell>
                <mxCell id="373" value="" style="rounded=0;orthogonalLoop=1;jettySize=auto;html=1;endArrow=halfCircle;endFill=0;endSize=6;strokeWidth=1;sketch=0;fontSize=12;curved=1;exitX=0;exitY=0.25;exitDx=0;exitDy=0;" edge="1" target="363" parent="1" source="310">
                    <mxGeometry relative="1" as="geometry">
                        <mxPoint x="270" y="916" as="sourcePoint"/>
                    </mxGeometry>
                </mxCell>
                <mxCell id="374" value="" style="ellipse;whiteSpace=wrap;html=1;align=center;aspect=fixed;fillColor=none;strokeColor=none;resizable=0;perimeter=centerPerimeter;rotatable=0;allowArrows=0;points=[];outlineConnect=1;" vertex="1" parent="1">
                    <mxGeometry x="245" y="911" width="10" height="10" as="geometry"/>
                </mxCell>
                <mxCell id="375" value="" style="rounded=0;orthogonalLoop=1;jettySize=auto;html=1;endArrow=halfCircle;endFill=0;endSize=6;strokeWidth=1;sketch=0;fontSize=12;curved=0;exitX=0;exitY=0.5;exitDx=0;exitDy=0;" edge="1" target="366" parent="1" source="310">
                    <mxGeometry relative="1" as="geometry">
                        <mxPoint x="270" y="916" as="sourcePoint"/>
                        <Array as="points">
                            <mxPoint x="201" y="881"/>
                        </Array>
                    </mxGeometry>
                </mxCell>
                <mxCell id="376" value="" style="ellipse;whiteSpace=wrap;html=1;align=center;aspect=fixed;fillColor=none;strokeColor=none;resizable=0;perimeter=centerPerimeter;rotatable=0;allowArrows=0;points=[];outlineConnect=1;" vertex="1" parent="1">
                    <mxGeometry x="245" y="911" width="10" height="10" as="geometry"/>
                </mxCell>
                <mxCell id="377" value="" style="rounded=0;orthogonalLoop=1;jettySize=auto;html=1;endArrow=halfCircle;endFill=0;endSize=6;strokeWidth=1;sketch=0;fontSize=12;curved=0;entryX=0.345;entryY=0.46;entryDx=0;entryDy=0;entryPerimeter=0;exitX=0;exitY=0.75;exitDx=0;exitDy=0;" edge="1" target="369" parent="1" source="310">
                    <mxGeometry relative="1" as="geometry">
                        <mxPoint x="270" y="956" as="sourcePoint"/>
                        <Array as="points">
                            <mxPoint x="225" y="900"/>
                            <mxPoint x="225" y="1016"/>
                        </Array>
                    </mxGeometry>
                </mxCell>
                <mxCell id="378" value="" style="ellipse;whiteSpace=wrap;html=1;align=center;aspect=fixed;fillColor=none;strokeColor=none;resizable=0;perimeter=centerPerimeter;rotatable=0;allowArrows=0;points=[];outlineConnect=1;" vertex="1" parent="1">
                    <mxGeometry x="245" y="951" width="10" height="10" as="geometry"/>
                </mxCell>
                <mxCell id="379" value="" style="rounded=0;orthogonalLoop=1;jettySize=auto;html=1;endArrow=halfCircle;endFill=0;endSize=6;strokeWidth=1;sketch=0;fontSize=12;curved=0;exitX=0.25;exitY=0;exitDx=0;exitDy=0;" edge="1" target="372" parent="1" source="310">
                    <mxGeometry relative="1" as="geometry">
                        <mxPoint x="290" y="826" as="sourcePoint"/>
                        <Array as="points">
                            <mxPoint x="311" y="827"/>
                        </Array>
                    </mxGeometry>
                </mxCell>
                <mxCell id="380" value="" style="ellipse;whiteSpace=wrap;html=1;align=center;aspect=fixed;fillColor=none;strokeColor=none;resizable=0;perimeter=centerPerimeter;rotatable=0;allowArrows=0;points=[];outlineConnect=1;" vertex="1" parent="1">
                    <mxGeometry x="265" y="821" width="10" height="10" as="geometry"/>
                </mxCell>
                <mxCell id="381" value="String" style="text;html=1;align=center;verticalAlign=middle;resizable=0;points=[];autosize=1;strokeColor=none;fillColor=none;" vertex="1" parent="1">
                    <mxGeometry x="90" y="829" width="50" height="30" as="geometry"/>
                </mxCell>
                <mxCell id="382" value="String" style="text;html=1;align=center;verticalAlign=middle;resizable=0;points=[];autosize=1;strokeColor=none;fillColor=none;" vertex="1" parent="1">
                    <mxGeometry x="90" y="899.29" width="50" height="30" as="geometry"/>
                </mxCell>
                <mxCell id="383" value="String" style="text;html=1;align=center;verticalAlign=middle;resizable=0;points=[];autosize=1;strokeColor=none;fillColor=none;" vertex="1" parent="1">
                    <mxGeometry x="90" y="990" width="50" height="30" as="geometry"/>
                </mxCell>
                <mxCell id="384" value="Position" style="text;html=1;align=center;verticalAlign=middle;resizable=0;points=[];autosize=1;strokeColor=none;fillColor=none;" vertex="1" parent="1">
                    <mxGeometry x="175" y="751" width="70" height="30" as="geometry"/>
                </mxCell>
                <mxCell id="385" value="" style="html=1;rounded=0;" vertex="1" parent="1">
                    <mxGeometry x="719.69" y="782" width="30" height="30" as="geometry"/>
                </mxCell>
                <mxCell id="386" value="" style="endArrow=none;html=1;rounded=0;align=center;verticalAlign=top;endFill=0;labelBackgroundColor=none;endSize=2;exitX=0.5;exitY=1;exitDx=0;exitDy=0;" edge="1" source="385" target="387" parent="1">
                    <mxGeometry relative="1" as="geometry"/>
                </mxCell>
                <mxCell id="389" value="Audio" style="edgeLabel;html=1;align=center;verticalAlign=middle;resizable=0;points=[];" vertex="1" connectable="0" parent="386">
                    <mxGeometry x="0.2" y="-1" relative="1" as="geometry">
                        <mxPoint x="31" y="-64" as="offset"/>
                    </mxGeometry>
                </mxCell>
                <mxCell id="387" value="" style="ellipse;html=1;fontSize=11;align=center;fillColor=none;points=[];aspect=fixed;resizable=0;verticalAlign=bottom;labelPosition=center;verticalLabelPosition=top;flipH=1;" vertex="1" parent="1">
                    <mxGeometry x="730.69" y="843" width="8" height="8" as="geometry"/>
                </mxCell>
                <mxCell id="388" style="edgeStyle=none;html=1;exitX=0.5;exitY=0;exitDx=0;exitDy=0;entryX=0.499;entryY=0.587;entryDx=0;entryDy=0;entryPerimeter=0;endArrow=halfCircle;endFill=0;" edge="1" parent="1" source="305" target="387">
                    <mxGeometry relative="1" as="geometry"/>
                </mxCell>
                <mxCell id="390" value="" style="html=1;rounded=0;" vertex="1" parent="1">
                    <mxGeometry x="719.69" y="1401" width="30" height="30" as="geometry"/>
                </mxCell>
                <mxCell id="391" value="" style="endArrow=none;html=1;rounded=0;align=center;verticalAlign=top;endFill=0;labelBackgroundColor=none;endSize=2;" edge="1" source="390" target="392" parent="1">
                    <mxGeometry relative="1" as="geometry"/>
                </mxCell>
                <mxCell id="392" value="" style="shape=requiredInterface;html=1;fontSize=11;align=center;fillColor=none;points=[];aspect=fixed;resizable=0;verticalAlign=bottom;labelPosition=center;verticalLabelPosition=top;flipH=1;direction=south;" vertex="1" parent="1">
                    <mxGeometry x="729.69" y="1371" width="10" height="5" as="geometry"/>
                </mxCell>
                <mxCell id="393" style="edgeStyle=none;html=1;exitX=0.5;exitY=1;exitDx=0;exitDy=0;endArrow=oval;endFill=0;" edge="1" parent="1" source="307" target="392">
                    <mxGeometry relative="1" as="geometry">
                        <mxPoint x="730" y="1371" as="targetPoint"/>
                    </mxGeometry>
                </mxCell>
                <mxCell id="396" value="Audio" style="edgeLabel;html=1;align=center;verticalAlign=middle;resizable=0;points=[];" vertex="1" connectable="0" parent="1">
                    <mxGeometry x="715" y="760.9999999999998" as="geometry">
                        <mxPoint x="42" y="590" as="offset"/>
                    </mxGeometry>
                </mxCell>
                <mxCell id="397" value="«Componet»&lt;br&gt;&lt;b&gt;Motor Encoders&lt;/b&gt;" style="html=1;dropTarget=0;whiteSpace=wrap;" vertex="1" parent="1">
                    <mxGeometry x="1813.9968702290075" y="1324.2095081967213" width="159.38931297709922" height="72.29508196721311" as="geometry"/>
                </mxCell>
                <mxCell id="398" value="" style="shape=module;jettyWidth=8;jettyHeight=4;" vertex="1" parent="397">
                    <mxGeometry x="1" width="20" height="20" relative="1" as="geometry">
                        <mxPoint x="-27" y="7" as="offset"/>
                    </mxGeometry>
                </mxCell>
                <mxCell id="399" value="«Componet»&lt;br&gt;&lt;b&gt;Motor Controllers&lt;/b&gt;" style="html=1;dropTarget=0;whiteSpace=wrap;" vertex="1" parent="1">
                    <mxGeometry x="1813.9968702290075" y="1525.4995081967213" width="159.38931297709922" height="72.29508196721311" as="geometry"/>
                </mxCell>
                <mxCell id="400" value="" style="shape=module;jettyWidth=8;jettyHeight=4;" vertex="1" parent="399">
                    <mxGeometry x="1" width="20" height="20" relative="1" as="geometry">
                        <mxPoint x="-27" y="7" as="offset"/>
                    </mxGeometry>
                </mxCell>
                <mxCell id="401" value="«Componet»&lt;br&gt;&lt;b&gt;Motors&lt;/b&gt;" style="html=1;dropTarget=0;whiteSpace=wrap;" vertex="1" parent="1">
                    <mxGeometry x="1813.9968702290075" y="1712.4995081967213" width="159.38931297709922" height="72.29508196721311" as="geometry"/>
                </mxCell>
                <mxCell id="402" value="" style="shape=module;jettyWidth=8;jettyHeight=4;" vertex="1" parent="401">
                    <mxGeometry x="1" width="20" height="20" relative="1" as="geometry">
                        <mxPoint x="-27" y="7" as="offset"/>
                    </mxGeometry>
                </mxCell>
                <mxCell id="403" value="" style="rounded=0;orthogonalLoop=1;jettySize=auto;html=1;endArrow=halfCircle;endFill=0;endSize=6;strokeWidth=1;sketch=0;exitX=0.5;exitY=0;exitDx=0;exitDy=0;" edge="1" target="405" parent="1" source="399">
                    <mxGeometry relative="1" as="geometry">
                        <mxPoint x="1684" y="1480.5" as="sourcePoint"/>
                    </mxGeometry>
                </mxCell>
                <mxCell id="404" value="" style="rounded=0;orthogonalLoop=1;jettySize=auto;html=1;endArrow=open;endFill=0;sketch=0;sourcePerimeterSpacing=0;targetPerimeterSpacing=0;endSize=10;exitX=0.5;exitY=1;exitDx=0;exitDy=0;dashed=1;" edge="1" target="405" parent="1" source="397">
                    <mxGeometry relative="1" as="geometry">
                        <mxPoint x="1644" y="1480.5" as="sourcePoint"/>
                    </mxGeometry>
                </mxCell>
                <mxCell id="405" value="" style="ellipse;whiteSpace=wrap;html=1;align=center;aspect=fixed;fillColor=none;strokeColor=none;resizable=0;perimeter=centerPerimeter;rotatable=0;allowArrows=0;points=[];outlineConnect=1;" vertex="1" parent="1">
                    <mxGeometry x="1888.69" y="1455.5" width="10" height="10" as="geometry"/>
                </mxCell>
                <mxCell id="406" value="" style="rounded=0;orthogonalLoop=1;jettySize=auto;html=1;endArrow=halfCircle;endFill=0;endSize=6;strokeWidth=1;sketch=0;exitX=0.5;exitY=0;exitDx=0;exitDy=0;" edge="1" target="408" parent="1" source="401">
                    <mxGeometry relative="1" as="geometry">
                        <mxPoint x="1929" y="1680.5" as="sourcePoint"/>
                    </mxGeometry>
                </mxCell>
                <mxCell id="407" value="" style="rounded=0;orthogonalLoop=1;jettySize=auto;html=1;endArrow=open;endFill=0;sketch=0;sourcePerimeterSpacing=0;targetPerimeterSpacing=0;endSize=10;exitX=0.5;exitY=1;exitDx=0;exitDy=0;dashed=1;" edge="1" target="408" parent="1" source="399">
                    <mxGeometry relative="1" as="geometry">
                        <mxPoint x="1889" y="1680.5" as="sourcePoint"/>
                    </mxGeometry>
                </mxCell>
                <mxCell id="408" value="" style="ellipse;whiteSpace=wrap;html=1;align=center;aspect=fixed;fillColor=none;strokeColor=none;resizable=0;perimeter=centerPerimeter;rotatable=0;allowArrows=0;points=[];outlineConnect=1;" vertex="1" parent="1">
                    <mxGeometry x="1888.69" y="1645.5" width="10" height="10" as="geometry"/>
                </mxCell>
                <mxCell id="411" value="" style="html=1;rounded=0;" vertex="1" parent="1">
                    <mxGeometry x="1706.34" y="1546.65" width="30" height="30" as="geometry"/>
                </mxCell>
                <mxCell id="412" value="" style="endArrow=none;html=1;rounded=0;align=center;verticalAlign=top;endFill=0;labelBackgroundColor=none;endSize=2;" edge="1" source="411" target="413" parent="1">
                    <mxGeometry relative="1" as="geometry"/>
                </mxCell>
                <mxCell id="413" value="" style="ellipse;html=1;fontSize=11;align=center;fillColor=none;points=[];aspect=fixed;resizable=0;verticalAlign=bottom;labelPosition=center;verticalLabelPosition=top;flipH=1;" vertex="1" parent="1">
                    <mxGeometry x="1758" y="1557.65" width="8" height="8" as="geometry"/>
                </mxCell>
                <mxCell id="414" value="" style="rounded=0;orthogonalLoop=1;jettySize=auto;html=1;endArrow=halfCircle;endFill=0;endSize=6;strokeWidth=1;sketch=0;fontSize=12;curved=1;exitX=0;exitY=0.5;exitDx=0;exitDy=0;" edge="1" target="415" parent="1" source="399">
                    <mxGeometry relative="1" as="geometry">
                        <mxPoint x="1785" y="1561.5" as="sourcePoint"/>
                    </mxGeometry>
                </mxCell>
                <mxCell id="415" value="" style="ellipse;whiteSpace=wrap;html=1;align=center;aspect=fixed;fillColor=none;strokeColor=none;resizable=0;perimeter=centerPerimeter;rotatable=0;allowArrows=0;points=[];outlineConnect=1;" vertex="1" parent="1">
                    <mxGeometry x="1760" y="1556.5" width="10" height="10" as="geometry"/>
                </mxCell>
                <mxCell id="416" value="" style="html=1;rounded=0;" vertex="1" parent="1">
                    <mxGeometry x="1706" y="1345.36" width="30" height="30" as="geometry"/>
                </mxCell>
                <mxCell id="417" value="" style="endArrow=none;html=1;rounded=0;align=center;verticalAlign=top;endFill=0;labelBackgroundColor=none;endSize=2;" edge="1" source="416" target="418" parent="1">
                    <mxGeometry relative="1" as="geometry"/>
                </mxCell>
                <mxCell id="418" value="" style="shape=requiredInterface;html=1;fontSize=11;align=center;fillColor=none;points=[];aspect=fixed;resizable=0;verticalAlign=bottom;labelPosition=center;verticalLabelPosition=top;flipH=1;" vertex="1" parent="1">
                    <mxGeometry x="1761" y="1355.36" width="5" height="10" as="geometry"/>
                </mxCell>
                <mxCell id="419" style="edgeStyle=none;html=1;exitX=0;exitY=0.5;exitDx=0;exitDy=0;endArrow=oval;endFill=0;" edge="1" parent="1" source="397" target="418">
                    <mxGeometry relative="1" as="geometry">
                        <mxPoint x="1774" y="1360.5" as="targetPoint"/>
                    </mxGeometry>
                </mxCell>
                <mxCell id="493" value="Odometry" style="edgeLabel;html=1;align=center;verticalAlign=middle;resizable=0;points=[];" vertex="1" connectable="0" parent="419">
                    <mxGeometry x="0.2436" relative="1" as="geometry">
                        <mxPoint x="2" y="-17" as="offset"/>
                    </mxGeometry>
                </mxCell>
                <mxCell id="420" value="«Componet»&lt;br&gt;&lt;b&gt;S&lt;/b&gt;&lt;span style=&quot;font-family: monospace; font-size: 0px; text-align: start; text-wrap-mode: nowrap;&quot;&gt;%3CmxGraphModel%3E%3Croot%3E%3CmxCell%20id%3D%220%22%2F%3E%3CmxCell%20id%3D%221%22%20parent%3D%220%22%2F%3E%3CmxCell%20id%3D%222%22%20value%3D%22%C2%ABComponet%C2%BB%26lt%3Bbr%26gt%3B%26lt%3Bb%26gt%3BMotors%26lt%3B%2Fb%26gt%3B%22%20style%3D%22html%3D1%3BdropTarget%3D0%3BwhiteSpace%3Dwrap%3B%22%20vertex%3D%221%22%20parent%3D%221%22%3E%3CmxGeometry%20x%3D%221559.9968702290075%22%20y%3D%221716.9995081967213%22%20width%3D%22159.38931297709922%22%20height%3D%2272.29508196721311%22%20as%3D%22geometry%22%2F%3E%3C%2FmxCell%3E%3CmxCell%20id%3D%223%22%20value%3D%22%22%20style%3D%22shape%3Dmodule%3BjettyWidth%3D8%3BjettyHeight%3D4%3B%22%20vertex%3D%221%22%20parent%3D%222%22%3E%3CmxGeometry%20x%3D%221%22%20width%3D%2220%22%20height%3D%2220%22%20relative%3D%221%22%20as%3D%22geometry%22%3E%3CmxPoint%20x%3D%22-27%22%20y%3D%227%22%20as%3D%22offset%22%2F%3E%3C%2FmxGeometry%3E%3C%2FmxCell%3E%3C%2Froot%3E%3C%2FmxGraphModel%3E&lt;/span&gt;&lt;span style=&quot;font-family: monospace; font-size: 0px; text-align: start; text-wrap-mode: nowrap;&quot;&gt;%3CmxGraphModel%3E%3Croot%3E%3CmxCell%20id%3D%220%22%2F%3E%3CmxCell%20id%3D%221%22%20parent%3D%220%22%2F%3E%3CmxCell%20id%3D%222%22%20value%3D%22%C2%ABComponet%C2%BB%26lt%3Bbr%26gt%3B%26lt%3Bb%26gt%3BMotors%26lt%3B%2Fb%26gt%3B%22%20style%3D%22html%3D1%3BdropTarget%3D0%3BwhiteSpace%3Dwrap%3B%22%20vertex%3D%221%22%20parent%3D%221%22%3E%3CmxGeometry%20x%3D%221559.9968702290075%22%20y%3D%221716.9995081967213%22%20width%3D%22159.38931297709922%22%20height%3D%2272.29508196721311%22%20as%3D%22geometry%22%2F%3E%3C%2FmxCell%3E%3CmxCell%20id%3D%223%22%20value%3D%22%22%20style%3D%22shape%3Dmodule%3BjettyWidth%3D8%3BjettyHeight%3D4%3B%22%20vertex%3D%221%22%20parent%3D%222%22%3E%3CmxGeometry%20x%3D%221%22%20width%3D%2220%22%20height%3D%2220%22%20relative%3D%221%22%20as%3D%22geometry%22%3E%3CmxPoint%20x%3D%22-27%22%20y%3D%227%22%20as%3D%22offset%22%2F%3E%3C%2FmxGeometry%3E%3C%2FmxCell%3E%3C%2Froot%3E%3C%2FmxGraphModel%3E&lt;/span&gt;&lt;b&gt;LAM&lt;/b&gt;" style="html=1;dropTarget=0;whiteSpace=wrap;" vertex="1" parent="1">
                    <mxGeometry x="839.9968702290075" y="1618.8495081967212" width="159.38931297709922" height="72.29508196721311" as="geometry"/>
                </mxCell>
                <mxCell id="421" value="" style="shape=module;jettyWidth=8;jettyHeight=4;" vertex="1" parent="420">
                    <mxGeometry x="1" width="20" height="20" relative="1" as="geometry">
                        <mxPoint x="-27" y="7" as="offset"/>
                    </mxGeometry>
                </mxCell>
                <mxCell id="422" value="«Componet»&lt;br&gt;&lt;b&gt;Autonomous Navigation&lt;/b&gt;" style="html=1;dropTarget=0;whiteSpace=wrap;" vertex="1" parent="1">
                    <mxGeometry x="839.9968702290075" y="1839.9995081967213" width="159.38931297709922" height="72.29508196721311" as="geometry"/>
                </mxCell>
                <mxCell id="423" value="" style="shape=module;jettyWidth=8;jettyHeight=4;" vertex="1" parent="422">
                    <mxGeometry x="1" width="20" height="20" relative="1" as="geometry">
                        <mxPoint x="-27" y="7" as="offset"/>
                    </mxGeometry>
                </mxCell>
                <mxCell id="424" value="" style="rounded=0;orthogonalLoop=1;jettySize=auto;html=1;endArrow=halfCircle;endFill=0;endSize=6;strokeWidth=1;sketch=0;exitX=0.5;exitY=0;exitDx=0;exitDy=0;" edge="1" target="426" parent="1" source="422">
                    <mxGeometry relative="1" as="geometry">
                        <mxPoint x="867" y="1765" as="sourcePoint"/>
                    </mxGeometry>
                </mxCell>
                <mxCell id="425" value="" style="rounded=0;orthogonalLoop=1;jettySize=auto;html=1;endArrow=open;endFill=0;sketch=0;sourcePerimeterSpacing=0;targetPerimeterSpacing=0;endSize=10;exitX=0.5;exitY=1;exitDx=0;exitDy=0;dashed=1;" edge="1" target="426" parent="1" source="420">
                    <mxGeometry relative="1" as="geometry">
                        <mxPoint x="827" y="1765" as="sourcePoint"/>
                        <Array as="points"/>
                    </mxGeometry>
                </mxCell>
                <mxCell id="426" value="" style="ellipse;whiteSpace=wrap;html=1;align=center;aspect=fixed;fillColor=none;strokeColor=none;resizable=0;perimeter=centerPerimeter;rotatable=0;allowArrows=0;points=[];outlineConnect=1;" vertex="1" parent="1">
                    <mxGeometry x="914.69" y="1760" width="10" height="10" as="geometry"/>
                </mxCell>
                <mxCell id="429" value="" style="html=1;rounded=0;" vertex="1" parent="1">
                    <mxGeometry x="1200" y="1861" width="30" height="30" as="geometry"/>
                </mxCell>
                <mxCell id="430" value="" style="endArrow=none;html=1;rounded=0;align=center;verticalAlign=top;endFill=0;labelBackgroundColor=none;endSize=2;exitX=0;exitY=0.5;exitDx=0;exitDy=0;" edge="1" source="429" target="431" parent="1">
                    <mxGeometry relative="1" as="geometry"/>
                </mxCell>
                <mxCell id="431" value="" style="shape=requiredInterface;html=1;fontSize=11;align=center;fillColor=none;points=[];aspect=fixed;resizable=0;verticalAlign=bottom;labelPosition=center;verticalLabelPosition=top;flipH=1;direction=west;" vertex="1" parent="1">
                    <mxGeometry x="1140" y="1871" width="5" height="10" as="geometry"/>
                </mxCell>
                <mxCell id="434" style="edgeStyle=none;html=1;exitX=1;exitY=0.5;exitDx=0;exitDy=0;endArrow=oval;endFill=0;" edge="1" parent="1" source="422">
                    <mxGeometry relative="1" as="geometry">
                        <mxPoint x="1140" y="1876" as="targetPoint"/>
                    </mxGeometry>
                </mxCell>
                <mxCell id="492" value="Path" style="edgeLabel;html=1;align=center;verticalAlign=middle;resizable=0;points=[];" vertex="1" connectable="0" parent="434">
                    <mxGeometry x="-0.4659" y="-1" relative="1" as="geometry">
                        <mxPoint x="-1" y="-16" as="offset"/>
                    </mxGeometry>
                </mxCell>
                <mxCell id="435" value="" style="rounded=0;orthogonalLoop=1;jettySize=auto;html=1;endArrow=halfCircle;endFill=0;endSize=6;strokeWidth=1;sketch=0;exitX=0;exitY=0.5;exitDx=0;exitDy=0;" edge="1" target="437" parent="1" source="411">
                    <mxGeometry relative="1" as="geometry">
                        <mxPoint x="1330" y="1876" as="sourcePoint"/>
                        <Array as="points">
                            <mxPoint x="1550" y="1562"/>
                            <mxPoint x="1550" y="1876"/>
                        </Array>
                    </mxGeometry>
                </mxCell>
                <mxCell id="494" value="Path" style="edgeLabel;html=1;align=center;verticalAlign=middle;resizable=0;points=[];" vertex="1" connectable="0" parent="435">
                    <mxGeometry x="-0.9019" y="1" relative="1" as="geometry">
                        <mxPoint y="-16" as="offset"/>
                    </mxGeometry>
                </mxCell>
                <mxCell id="436" value="" style="rounded=0;orthogonalLoop=1;jettySize=auto;html=1;endArrow=oval;endFill=0;sketch=0;sourcePerimeterSpacing=0;targetPerimeterSpacing=0;endSize=10;exitX=1;exitY=0.5;exitDx=0;exitDy=0;" edge="1" target="437" parent="1" source="429">
                    <mxGeometry relative="1" as="geometry">
                        <mxPoint x="1290" y="1876" as="sourcePoint"/>
                    </mxGeometry>
                </mxCell>
                <mxCell id="437" value="" style="ellipse;whiteSpace=wrap;html=1;align=center;aspect=fixed;fillColor=none;strokeColor=none;resizable=0;perimeter=centerPerimeter;rotatable=0;allowArrows=0;points=[];outlineConnect=1;" vertex="1" parent="1">
                    <mxGeometry x="1305" y="1871" width="10" height="10" as="geometry"/>
                </mxCell>
                <mxCell id="438" value="" style="html=1;rounded=0;" vertex="1" parent="1">
                    <mxGeometry x="1200" y="1640" width="30" height="30" as="geometry"/>
                </mxCell>
                <mxCell id="442" value="" style="rounded=0;orthogonalLoop=1;jettySize=auto;html=1;endArrow=halfCircle;endFill=0;endSize=6;strokeWidth=1;sketch=0;exitX=1;exitY=0.5;exitDx=0;exitDy=0;" edge="1" target="444" parent="1" source="420">
                    <mxGeometry relative="1" as="geometry">
                        <mxPoint x="1140" y="1655" as="sourcePoint"/>
                    </mxGeometry>
                </mxCell>
                <mxCell id="443" value="" style="rounded=0;orthogonalLoop=1;jettySize=auto;html=1;endArrow=oval;endFill=0;sketch=0;sourcePerimeterSpacing=0;targetPerimeterSpacing=0;endSize=10;exitX=0;exitY=0.5;exitDx=0;exitDy=0;" edge="1" target="444" parent="1" source="438">
                    <mxGeometry relative="1" as="geometry">
                        <mxPoint x="1100" y="1655" as="sourcePoint"/>
                    </mxGeometry>
                </mxCell>
                <mxCell id="490" value="Odometry" style="edgeLabel;html=1;align=center;verticalAlign=middle;resizable=0;points=[];" vertex="1" connectable="0" parent="443">
                    <mxGeometry x="0.2063" y="-2" relative="1" as="geometry">
                        <mxPoint x="18" y="-13" as="offset"/>
                    </mxGeometry>
                </mxCell>
                <mxCell id="444" value="" style="ellipse;whiteSpace=wrap;html=1;align=center;aspect=fixed;fillColor=none;strokeColor=none;resizable=0;perimeter=centerPerimeter;rotatable=0;allowArrows=0;points=[];outlineConnect=1;" vertex="1" parent="1">
                    <mxGeometry x="1115" y="1650" width="10" height="10" as="geometry"/>
                </mxCell>
                <mxCell id="445" value="" style="rounded=0;orthogonalLoop=1;jettySize=auto;html=1;endArrow=halfCircle;endFill=0;endSize=6;strokeWidth=1;sketch=0;exitX=1;exitY=0.5;exitDx=0;exitDy=0;" edge="1" target="447" parent="1" source="438">
                    <mxGeometry relative="1" as="geometry">
                        <mxPoint x="1390" y="1465" as="sourcePoint"/>
                        <Array as="points">
                            <mxPoint x="1465" y="1655"/>
                        </Array>
                    </mxGeometry>
                </mxCell>
                <mxCell id="446" value="" style="rounded=0;orthogonalLoop=1;jettySize=auto;html=1;endArrow=oval;endFill=0;sketch=0;sourcePerimeterSpacing=0;targetPerimeterSpacing=0;endSize=10;exitX=0;exitY=0.5;exitDx=0;exitDy=0;" edge="1" target="447" parent="1" source="416">
                    <mxGeometry relative="1" as="geometry">
                        <mxPoint x="1350" y="1465" as="sourcePoint"/>
                        <Array as="points">
                            <mxPoint x="1465" y="1360"/>
                        </Array>
                    </mxGeometry>
                </mxCell>
                <mxCell id="447" value="" style="ellipse;whiteSpace=wrap;html=1;align=center;aspect=fixed;fillColor=none;strokeColor=none;resizable=0;perimeter=centerPerimeter;rotatable=0;allowArrows=0;points=[];outlineConnect=1;" vertex="1" parent="1">
                    <mxGeometry x="1460" y="1480" width="10" height="10" as="geometry"/>
                </mxCell>
                <mxCell id="448" value="" style="html=1;rounded=0;" vertex="1" parent="1">
                    <mxGeometry x="655" y="1581" width="30" height="30" as="geometry"/>
                </mxCell>
                <mxCell id="449" value="" style="endArrow=none;html=1;rounded=0;align=center;verticalAlign=top;endFill=0;labelBackgroundColor=none;endSize=2;" edge="1" source="448" target="450" parent="1">
                    <mxGeometry relative="1" as="geometry"/>
                </mxCell>
                <mxCell id="484" value="PointCloud&lt;div&gt;Infrared&lt;/div&gt;&lt;div&gt;Depth&lt;/div&gt;" style="edgeLabel;html=1;align=center;verticalAlign=middle;resizable=0;points=[];" vertex="1" connectable="0" parent="449">
                    <mxGeometry x="-0.0056" relative="1" as="geometry">
                        <mxPoint x="-80" y="-35" as="offset"/>
                    </mxGeometry>
                </mxCell>
                <mxCell id="450" value="" style="ellipse;html=1;fontSize=11;align=center;fillColor=none;points=[];aspect=fixed;resizable=0;verticalAlign=bottom;labelPosition=center;verticalLabelPosition=top;flipH=1;" vertex="1" parent="1">
                    <mxGeometry x="707" y="1592" width="8" height="8" as="geometry"/>
                </mxCell>
                <mxCell id="454" value="" style="html=1;rounded=0;" vertex="1" parent="1">
                    <mxGeometry x="655" y="1650" width="30" height="30" as="geometry"/>
                </mxCell>
                <mxCell id="455" value="" style="endArrow=none;html=1;rounded=0;align=center;verticalAlign=top;endFill=0;labelBackgroundColor=none;endSize=2;" edge="1" parent="1" source="454" target="456">
                    <mxGeometry relative="1" as="geometry"/>
                </mxCell>
                <mxCell id="456" value="" style="ellipse;html=1;fontSize=11;align=center;fillColor=none;points=[];aspect=fixed;resizable=0;verticalAlign=bottom;labelPosition=center;verticalLabelPosition=top;flipH=1;" vertex="1" parent="1">
                    <mxGeometry x="707" y="1661" width="8" height="8" as="geometry"/>
                </mxCell>
                <mxCell id="457" value="" style="html=1;rounded=0;" vertex="1" parent="1">
                    <mxGeometry x="655" y="1724" width="30" height="30" as="geometry"/>
                </mxCell>
                <mxCell id="458" value="" style="endArrow=none;html=1;rounded=0;align=center;verticalAlign=top;endFill=0;labelBackgroundColor=none;endSize=2;" edge="1" parent="1" source="457" target="459">
                    <mxGeometry relative="1" as="geometry"/>
                </mxCell>
                <mxCell id="486" value="PointCloud" style="edgeLabel;html=1;align=center;verticalAlign=middle;resizable=0;points=[];" vertex="1" connectable="0" parent="458">
                    <mxGeometry x="0.1826" relative="1" as="geometry">
                        <mxPoint x="-78" y="-15" as="offset"/>
                    </mxGeometry>
                </mxCell>
                <mxCell id="459" value="" style="ellipse;html=1;fontSize=11;align=center;fillColor=none;points=[];aspect=fixed;resizable=0;verticalAlign=bottom;labelPosition=center;verticalLabelPosition=top;flipH=1;" vertex="1" parent="1">
                    <mxGeometry x="707" y="1735" width="8" height="8" as="geometry"/>
                </mxCell>
                <mxCell id="460" value="" style="html=1;rounded=0;" vertex="1" parent="1">
                    <mxGeometry x="655" y="1800" width="30" height="30" as="geometry"/>
                </mxCell>
                <mxCell id="461" value="" style="endArrow=none;html=1;rounded=0;align=center;verticalAlign=top;endFill=0;labelBackgroundColor=none;endSize=2;" edge="1" parent="1" source="460" target="462">
                    <mxGeometry relative="1" as="geometry"/>
                </mxCell>
                <mxCell id="487" value="Status Code" style="edgeLabel;html=1;align=center;verticalAlign=middle;resizable=0;points=[];" vertex="1" connectable="0" parent="461">
                    <mxGeometry x="0.1826" y="-1" relative="1" as="geometry">
                        <mxPoint x="-78" y="-6" as="offset"/>
                    </mxGeometry>
                </mxCell>
                <mxCell id="462" value="" style="ellipse;html=1;fontSize=11;align=center;fillColor=none;points=[];aspect=fixed;resizable=0;verticalAlign=bottom;labelPosition=center;verticalLabelPosition=top;flipH=1;" vertex="1" parent="1">
                    <mxGeometry x="707" y="1811" width="8" height="8" as="geometry"/>
                </mxCell>
                <mxCell id="463" value="" style="html=1;rounded=0;" vertex="1" parent="1">
                    <mxGeometry x="655" y="1871" width="30" height="30" as="geometry"/>
                </mxCell>
                <mxCell id="464" value="" style="endArrow=none;html=1;rounded=0;align=center;verticalAlign=top;endFill=0;labelBackgroundColor=none;endSize=2;" edge="1" parent="1" source="463" target="465">
                    <mxGeometry relative="1" as="geometry"/>
                </mxCell>
                <mxCell id="488" value="Command" style="edgeLabel;html=1;align=center;verticalAlign=middle;resizable=0;points=[];" vertex="1" connectable="0" parent="464">
                    <mxGeometry x="-0.068" y="1" relative="1" as="geometry">
                        <mxPoint x="-80" y="-4" as="offset"/>
                    </mxGeometry>
                </mxCell>
                <mxCell id="465" value="" style="ellipse;html=1;fontSize=11;align=center;fillColor=none;points=[];aspect=fixed;resizable=0;verticalAlign=bottom;labelPosition=center;verticalLabelPosition=top;flipH=1;" vertex="1" parent="1">
                    <mxGeometry x="707" y="1882" width="8" height="8" as="geometry"/>
                </mxCell>
                <mxCell id="466" value="" style="html=1;rounded=0;" vertex="1" parent="1">
                    <mxGeometry x="655" y="1960" width="30" height="30" as="geometry"/>
                </mxCell>
                <mxCell id="467" value="" style="endArrow=none;html=1;rounded=0;align=center;verticalAlign=top;endFill=0;labelBackgroundColor=none;endSize=2;" edge="1" parent="1" source="466" target="468">
                    <mxGeometry relative="1" as="geometry"/>
                </mxCell>
                <mxCell id="489" value="String" style="edgeLabel;html=1;align=center;verticalAlign=middle;resizable=0;points=[];" vertex="1" connectable="0" parent="467">
                    <mxGeometry x="0.1825" y="-2" relative="1" as="geometry">
                        <mxPoint x="-74" y="-17" as="offset"/>
                    </mxGeometry>
                </mxCell>
                <mxCell id="468" value="" style="ellipse;html=1;fontSize=11;align=center;fillColor=none;points=[];aspect=fixed;resizable=0;verticalAlign=bottom;labelPosition=center;verticalLabelPosition=top;flipH=1;" vertex="1" parent="1">
                    <mxGeometry x="707" y="1971" width="8" height="8" as="geometry"/>
                </mxCell>
                <mxCell id="469" value="" style="rounded=0;orthogonalLoop=1;jettySize=auto;html=1;endArrow=halfCircle;endFill=0;endSize=6;strokeWidth=1;sketch=0;fontSize=12;curved=0;entryX=0.589;entryY=0.483;entryDx=0;entryDy=0;entryPerimeter=0;exitX=0;exitY=0.5;exitDx=0;exitDy=0;" edge="1" target="450" parent="1" source="420">
                    <mxGeometry relative="1" as="geometry">
                        <mxPoint x="1015" y="1795" as="sourcePoint"/>
                        <Array as="points">
                            <mxPoint x="790" y="1655"/>
                            <mxPoint x="790" y="1596"/>
                        </Array>
                    </mxGeometry>
                </mxCell>
                <mxCell id="470" value="" style="ellipse;whiteSpace=wrap;html=1;align=center;aspect=fixed;fillColor=none;strokeColor=none;resizable=0;perimeter=centerPerimeter;rotatable=0;allowArrows=0;points=[];outlineConnect=1;" vertex="1" parent="1">
                    <mxGeometry x="990" y="1790" width="10" height="10" as="geometry"/>
                </mxCell>
                <mxCell id="471" value="" style="rounded=0;orthogonalLoop=1;jettySize=auto;html=1;endArrow=halfCircle;endFill=0;endSize=6;strokeWidth=1;sketch=0;fontSize=12;curved=0;entryX=0.245;entryY=0.418;entryDx=0;entryDy=0;entryPerimeter=0;exitX=0.5;exitY=1;exitDx=0;exitDy=0;" edge="1" target="468" parent="1" source="422">
                    <mxGeometry relative="1" as="geometry">
                        <mxPoint x="744" y="1976" as="sourcePoint"/>
                        <Array as="points">
                            <mxPoint x="920" y="1974"/>
                        </Array>
                    </mxGeometry>
                </mxCell>
                <mxCell id="472" value="" style="ellipse;whiteSpace=wrap;html=1;align=center;aspect=fixed;fillColor=none;strokeColor=none;resizable=0;perimeter=centerPerimeter;rotatable=0;allowArrows=0;points=[];outlineConnect=1;" vertex="1" parent="1">
                    <mxGeometry x="719" y="1971" width="10" height="10" as="geometry"/>
                </mxCell>
                <mxCell id="475" value="" style="rounded=0;orthogonalLoop=1;jettySize=auto;html=1;endArrow=halfCircle;endFill=0;endSize=6;strokeWidth=1;sketch=0;fontSize=12;curved=0;exitX=0;exitY=0.75;exitDx=0;exitDy=0;entryX=0.383;entryY=0.509;entryDx=0;entryDy=0;entryPerimeter=0;" edge="1" target="465" parent="1" source="422">
                    <mxGeometry relative="1" as="geometry">
                        <mxPoint x="831" y="1887" as="sourcePoint"/>
                        <Array as="points">
                            <mxPoint x="740" y="1894"/>
                            <mxPoint x="740" y="1886"/>
                        </Array>
                    </mxGeometry>
                </mxCell>
                <mxCell id="476" value="" style="ellipse;whiteSpace=wrap;html=1;align=center;aspect=fixed;fillColor=none;strokeColor=none;resizable=0;perimeter=centerPerimeter;rotatable=0;allowArrows=0;points=[];outlineConnect=1;" vertex="1" parent="1">
                    <mxGeometry x="806" y="1882" width="10" height="10" as="geometry"/>
                </mxCell>
                <mxCell id="477" value="" style="rounded=0;orthogonalLoop=1;jettySize=auto;html=1;endArrow=halfCircle;endFill=0;endSize=6;strokeWidth=1;sketch=0;fontSize=12;curved=0;exitX=0;exitY=0.5;exitDx=0;exitDy=0;" edge="1" target="478" parent="1" source="422">
                    <mxGeometry relative="1" as="geometry">
                        <mxPoint x="754.69" y="1825" as="sourcePoint"/>
                        <Array as="points">
                            <mxPoint x="760" y="1876"/>
                            <mxPoint x="760" y="1815"/>
                        </Array>
                    </mxGeometry>
                </mxCell>
                <mxCell id="478" value="" style="ellipse;whiteSpace=wrap;html=1;align=center;aspect=fixed;fillColor=none;strokeColor=none;resizable=0;perimeter=centerPerimeter;rotatable=0;allowArrows=0;points=[];outlineConnect=1;" vertex="1" parent="1">
                    <mxGeometry x="706" y="1810" width="10" height="10" as="geometry"/>
                </mxCell>
                <mxCell id="479" value="" style="rounded=0;orthogonalLoop=1;jettySize=auto;html=1;endArrow=halfCircle;endFill=0;endSize=6;strokeWidth=1;sketch=0;fontSize=12;curved=0;exitX=0;exitY=0.25;exitDx=0;exitDy=0;" edge="1" target="459" parent="1" source="422">
                    <mxGeometry relative="1" as="geometry">
                        <mxPoint x="795" y="1775" as="sourcePoint"/>
                        <Array as="points">
                            <mxPoint x="780" y="1860"/>
                            <mxPoint x="780" y="1739"/>
                        </Array>
                    </mxGeometry>
                </mxCell>
                <mxCell id="480" value="" style="ellipse;whiteSpace=wrap;html=1;align=center;aspect=fixed;fillColor=none;strokeColor=none;resizable=0;perimeter=centerPerimeter;rotatable=0;allowArrows=0;points=[];outlineConnect=1;" vertex="1" parent="1">
                    <mxGeometry x="770" y="1770" width="10" height="10" as="geometry"/>
                </mxCell>
                <mxCell id="481" value="" style="rounded=0;orthogonalLoop=1;jettySize=auto;html=1;endArrow=halfCircle;endFill=0;endSize=6;strokeWidth=1;sketch=0;fontSize=12;curved=0;entryX=0.374;entryY=0.56;entryDx=0;entryDy=0;entryPerimeter=0;exitX=0.25;exitY=0;exitDx=0;exitDy=0;" edge="1" target="456" parent="1" source="422">
                    <mxGeometry relative="1" as="geometry">
                        <mxPoint x="785" y="1676" as="sourcePoint"/>
                        <Array as="points">
                            <mxPoint x="880" y="1780"/>
                            <mxPoint x="790" y="1780"/>
                            <mxPoint x="790" y="1665"/>
                        </Array>
                    </mxGeometry>
                </mxCell>
                <mxCell id="482" value="" style="ellipse;whiteSpace=wrap;html=1;align=center;aspect=fixed;fillColor=none;strokeColor=none;resizable=0;perimeter=centerPerimeter;rotatable=0;allowArrows=0;points=[];outlineConnect=1;" vertex="1" parent="1">
                    <mxGeometry x="760" y="1671" width="10" height="10" as="geometry"/>
                </mxCell>
                <mxCell id="485" value="String" style="edgeLabel;html=1;align=center;verticalAlign=middle;resizable=0;points=[];" vertex="1" connectable="0" parent="1">
                    <mxGeometry x="620.0041878887325" y="1639.9996701263203" as="geometry">
                        <mxPoint x="-3" y="1" as="offset"/>
                    </mxGeometry>
                </mxCell>
                <mxCell id="497" value="" style="html=1;rounded=0;" vertex="1" parent="1">
                    <mxGeometry x="335.69000000000005" y="1411" width="30" height="30" as="geometry"/>
                </mxCell>
                <mxCell id="498" value="" style="html=1;rounded=0;" vertex="1" parent="1">
                    <mxGeometry x="140" y="1086" width="30" height="30" as="geometry"/>
                </mxCell>
                <mxCell id="499" value="" style="rounded=0;orthogonalLoop=1;jettySize=auto;html=1;endArrow=halfCircle;endFill=0;endSize=6;strokeWidth=1;sketch=0;exitX=1;exitY=0.5;exitDx=0;exitDy=0;" edge="1" target="501" parent="1" source="498">
                    <mxGeometry relative="1" as="geometry">
                        <mxPoint x="490" y="1135" as="sourcePoint"/>
                    </mxGeometry>
                </mxCell>
                <mxCell id="505" value="Status Code" style="edgeLabel;html=1;align=center;verticalAlign=middle;resizable=0;points=[];" vertex="1" connectable="0" parent="499">
                    <mxGeometry x="-0.304" y="1" relative="1" as="geometry">
                        <mxPoint x="44" y="-20" as="offset"/>
                    </mxGeometry>
                </mxCell>
                <mxCell id="500" value="" style="rounded=0;orthogonalLoop=1;jettySize=auto;html=1;endArrow=oval;endFill=0;sketch=0;sourcePerimeterSpacing=0;targetPerimeterSpacing=0;endSize=10;exitX=0;exitY=0.5;exitDx=0;exitDy=0;" edge="1" target="501" parent="1" source="312">
                    <mxGeometry relative="1" as="geometry">
                        <mxPoint x="450" y="1135" as="sourcePoint"/>
                    </mxGeometry>
                </mxCell>
                <mxCell id="501" value="" style="ellipse;whiteSpace=wrap;html=1;align=center;aspect=fixed;fillColor=none;strokeColor=none;resizable=0;perimeter=centerPerimeter;rotatable=0;allowArrows=0;points=[];outlineConnect=1;" vertex="1" parent="1">
                    <mxGeometry x="225" y="1096" width="10" height="10" as="geometry"/>
                </mxCell>
                <mxCell id="502" value="" style="rounded=0;orthogonalLoop=1;jettySize=auto;html=1;endArrow=halfCircle;endFill=0;endSize=6;strokeWidth=1;sketch=0;exitX=0.5;exitY=0;exitDx=0;exitDy=0;" edge="1" target="504" parent="1" source="497">
                    <mxGeometry relative="1" as="geometry">
                        <mxPoint x="490" y="1395" as="sourcePoint"/>
                    </mxGeometry>
                </mxCell>
                <mxCell id="503" value="" style="rounded=0;orthogonalLoop=1;jettySize=auto;html=1;endArrow=oval;endFill=0;sketch=0;sourcePerimeterSpacing=0;targetPerimeterSpacing=0;endSize=10;exitX=0.5;exitY=1;exitDx=0;exitDy=0;" edge="1" target="504" parent="1" source="314">
                    <mxGeometry relative="1" as="geometry">
                        <mxPoint x="450" y="1395" as="sourcePoint"/>
                    </mxGeometry>
                </mxCell>
                <mxCell id="506" value="Commands" style="edgeLabel;html=1;align=center;verticalAlign=middle;resizable=0;points=[];" vertex="1" connectable="0" parent="503">
                    <mxGeometry x="-0.2694" relative="1" as="geometry">
                        <mxPoint as="offset"/>
                    </mxGeometry>
                </mxCell>
                <mxCell id="504" value="" style="ellipse;whiteSpace=wrap;html=1;align=center;aspect=fixed;fillColor=none;strokeColor=none;resizable=0;perimeter=centerPerimeter;rotatable=0;allowArrows=0;points=[];outlineConnect=1;" vertex="1" parent="1">
                    <mxGeometry x="345.69" y="1379.86" width="10" height="10" as="geometry"/>
                </mxCell>
                <mxCell id="507" value="" style="rounded=0;orthogonalLoop=1;jettySize=auto;html=1;endArrow=halfCircle;endFill=0;endSize=6;strokeWidth=1;sketch=0;exitX=0;exitY=0.5;exitDx=0;exitDy=0;" edge="1" target="509" parent="1" source="172">
                    <mxGeometry relative="1" as="geometry">
                        <mxPoint x="1679" y="273.5" as="sourcePoint"/>
                    </mxGeometry>
                </mxCell>
                <mxCell id="508" value="" style="rounded=0;orthogonalLoop=1;jettySize=auto;html=1;endArrow=oval;endFill=0;sketch=0;sourcePerimeterSpacing=0;targetPerimeterSpacing=0;endSize=10;exitX=0.5;exitY=1;exitDx=0;exitDy=0;" edge="1" target="509" parent="1" source="390">
                    <mxGeometry relative="1" as="geometry">
                        <mxPoint x="1130" y="1180" as="sourcePoint"/>
                        <Array as="points">
                            <mxPoint x="735" y="1460"/>
                            <mxPoint x="1330" y="1460"/>
                            <mxPoint x="1330" y="274"/>
                        </Array>
                    </mxGeometry>
                </mxCell>
                <mxCell id="509" value="" style="ellipse;whiteSpace=wrap;html=1;align=center;aspect=fixed;fillColor=none;strokeColor=none;resizable=0;perimeter=centerPerimeter;rotatable=0;allowArrows=0;points=[];outlineConnect=1;" vertex="1" parent="1">
                    <mxGeometry x="1654" y="268.5" width="10" height="10" as="geometry"/>
                </mxCell>
                <mxCell id="510" value="" style="rounded=0;orthogonalLoop=1;jettySize=auto;html=1;endArrow=halfCircle;endFill=0;endSize=6;strokeWidth=1;sketch=0;exitX=0;exitY=0.5;exitDx=0;exitDy=0;" edge="1" target="512" parent="1" source="460">
                    <mxGeometry relative="1" as="geometry">
                        <mxPoint x="406" y="1780" as="sourcePoint"/>
                    </mxGeometry>
                </mxCell>
                <mxCell id="511" value="" style="rounded=0;orthogonalLoop=1;jettySize=auto;html=1;endArrow=oval;endFill=0;sketch=0;sourcePerimeterSpacing=0;targetPerimeterSpacing=0;endSize=10;exitX=0;exitY=0.5;exitDx=0;exitDy=0;" edge="1" target="512" parent="1" source="498">
                    <mxGeometry relative="1" as="geometry">
                        <mxPoint x="70" y="1090" as="sourcePoint"/>
                        <Array as="points">
                            <mxPoint x="70" y="1101"/>
                            <mxPoint x="70" y="1816"/>
                        </Array>
                    </mxGeometry>
                </mxCell>
                <mxCell id="512" value="" style="ellipse;whiteSpace=wrap;html=1;align=center;aspect=fixed;fillColor=none;strokeColor=none;resizable=0;perimeter=centerPerimeter;rotatable=0;allowArrows=0;points=[];outlineConnect=1;" vertex="1" parent="1">
                    <mxGeometry x="130" y="1811" width="10" height="10" as="geometry"/>
                </mxCell>
                <mxCell id="513" value="" style="rounded=0;orthogonalLoop=1;jettySize=auto;html=1;endArrow=halfCircle;endFill=0;endSize=6;strokeWidth=1;sketch=0;exitX=0;exitY=0.5;exitDx=0;exitDy=0;" edge="1" target="515" parent="1" source="463">
                    <mxGeometry relative="1" as="geometry">
                        <mxPoint x="386" y="1530" as="sourcePoint"/>
                        <Array as="points">
                            <mxPoint x="350" y="1886"/>
                        </Array>
                    </mxGeometry>
                </mxCell>
                <mxCell id="514" value="" style="rounded=0;orthogonalLoop=1;jettySize=auto;html=1;endArrow=oval;endFill=0;sketch=0;sourcePerimeterSpacing=0;targetPerimeterSpacing=0;endSize=10;exitX=0.5;exitY=1;exitDx=0;exitDy=0;" edge="1" target="515" parent="1" source="497">
                    <mxGeometry relative="1" as="geometry">
                        <mxPoint x="346" y="1530" as="sourcePoint"/>
                    </mxGeometry>
                </mxCell>
                <mxCell id="515" value="" style="ellipse;whiteSpace=wrap;html=1;align=center;aspect=fixed;fillColor=none;strokeColor=none;resizable=0;perimeter=centerPerimeter;rotatable=0;allowArrows=0;points=[];outlineConnect=1;" vertex="1" parent="1">
                    <mxGeometry x="345.69" y="1525.5" width="10" height="10" as="geometry"/>
                </mxCell>
                <mxCell id="516" value="" style="rounded=0;orthogonalLoop=1;jettySize=auto;html=1;endArrow=halfCircle;endFill=0;endSize=6;strokeWidth=1;sketch=0;exitX=0;exitY=0.5;exitDx=0;exitDy=0;" edge="1" target="518" parent="1" source="178">
                    <mxGeometry relative="1" as="geometry">
                        <mxPoint x="960" y="690" as="sourcePoint"/>
                        <Array as="points">
                            <mxPoint x="1590" y="520"/>
                            <mxPoint x="1590" y="690"/>
                            <mxPoint x="70" y="690"/>
                        </Array>
                    </mxGeometry>
                </mxCell>
                <mxCell id="517" value="" style="rounded=0;orthogonalLoop=1;jettySize=auto;html=1;endArrow=oval;endFill=0;sketch=0;sourcePerimeterSpacing=0;targetPerimeterSpacing=0;endSize=10;" edge="1" target="518" parent="1">
                    <mxGeometry relative="1" as="geometry">
                        <mxPoint x="70" y="1110" as="sourcePoint"/>
                    </mxGeometry>
                </mxCell>
                <mxCell id="518" value="" style="ellipse;whiteSpace=wrap;html=1;align=center;aspect=fixed;fillColor=none;strokeColor=none;resizable=0;perimeter=centerPerimeter;rotatable=0;allowArrows=0;points=[];outlineConnect=1;" vertex="1" parent="1">
                    <mxGeometry x="65" y="1064.85" width="10" height="10" as="geometry"/>
                </mxCell>
                <mxCell id="519" value="" style="ellipse;whiteSpace=wrap;html=1;aspect=fixed;fillColor=#000000;" vertex="1" parent="1">
                    <mxGeometry x="60" y="1091" width="20" height="20" as="geometry"/>
                </mxCell>
                <mxCell id="521" value="" style="rounded=0;orthogonalLoop=1;jettySize=auto;html=1;endArrow=halfCircle;endFill=0;endSize=6;strokeWidth=1;sketch=0;exitX=0.5;exitY=0;exitDx=0;exitDy=0;" edge="1" target="523" parent="1" source="385">
                    <mxGeometry relative="1" as="geometry">
                        <mxPoint x="820" y="730" as="sourcePoint"/>
                    </mxGeometry>
                </mxCell>
                <mxCell id="522" value="" style="rounded=0;orthogonalLoop=1;jettySize=auto;html=1;endArrow=oval;endFill=0;sketch=0;sourcePerimeterSpacing=0;targetPerimeterSpacing=0;endSize=10;exitX=1;exitY=0.5;exitDx=0;exitDy=0;" edge="1" target="523" parent="1" source="192">
                    <mxGeometry relative="1" as="geometry">
                        <mxPoint x="1540" y="730" as="sourcePoint"/>
                        <Array as="points">
                            <mxPoint x="2210" y="340"/>
                            <mxPoint x="2210" y="600"/>
                            <mxPoint x="1450" y="600"/>
                            <mxPoint x="1450" y="710"/>
                            <mxPoint x="735" y="710"/>
                        </Array>
                    </mxGeometry>
                </mxCell>
                <mxCell id="523" value="" style="ellipse;whiteSpace=wrap;html=1;align=center;aspect=fixed;fillColor=none;strokeColor=none;resizable=0;perimeter=centerPerimeter;rotatable=0;allowArrows=0;points=[];outlineConnect=1;" vertex="1" parent="1">
                    <mxGeometry x="729.69" y="735.5" width="10" height="10" as="geometry"/>
                </mxCell>
            </root>
        </mxGraphModel>
    </diagram>
</mxfile>